<svg width="20" height="20" viewBox="0 0 20 20" fill="none" xmlns="http://www.w3.org/2000/svg">
<path fill-rule="evenodd" clip-rule="evenodd" d="M18 10C18 14.4183 14.4183 18 10 18C5.58172 18 2 14.4183 2 10C2 5.58172 5.58172 2 10 2C14.4183 2 18 5.58172 18 10ZM11.0723 16.7911C10.7229 16.8458 10.3647 16.8742 10 16.8742C8.65843 16.8742 7.40661 16.4899 6.34864 15.8253L7.20511 12.0559L11.0723 16.7911ZM12.3224 16.472L9.90934 13.5173H15.9074C15.0972 14.8752 13.8321 15.9302 12.3224 16.472ZM16.463 12.3472C16.7291 11.6148 16.8742 10.8244 16.8742 10C16.8742 9.23075 16.7478 8.49101 16.5148 7.80041L12.7046 12.3472H16.463ZM15.9832 6.61296C15.15 5.14423 13.7916 4.01252 12.1633 3.47311L13.5287 9.54208L15.9832 6.61296ZM10.8989 3.18405L11.7707 7.05878L5.94527 4.4484C7.08198 3.61677 8.48366 3.12581 10 3.12581C10.3047 3.12581 10.6047 3.14563 10.8989 3.18405ZM4.98378 5.29974C3.89421 6.46208 3.20399 8.00331 3.13204 9.70449L8.53897 6.89283L4.98378 5.29974ZM3.19653 10.9898C3.42614 12.582 4.20148 13.9979 5.32685 15.0415L6.65622 9.19071L3.19653 10.9898ZM8.98025 12.3797L7.53393 10.6087L8.01689 8.48314L9.90123 7.50327L12.0915 8.48472L12.5832 10.6704L11.178 12.3472H8.98025V12.3797Z" fill="black"/>
</svg>
