<svg width="180" height="60" viewBox="0 0 180 60" fill="none" xmlns="http://www.w3.org/2000/svg">
<path d="M47.333 36.0531H43.4506L38.9912 23.8044L36.4871 30.5045H40.3412L41.4001 33.4206H35.5465L34.5336 36.0566H30.6512L36.8453 20.4936H41.1353L47.333 36.0531ZM116.554 36.0531V33.137H109.756V20.4953H106.309V36.0583L116.554 36.0531ZM136.419 36.0531V33.137H129.625V20.4953H126.173V36.0583L136.419 36.0531ZM87.2206 23.2799C86.1983 23.2799 85.199 23.5734 84.349 24.1232C83.499 24.673 82.8365 25.4545 82.4453 26.3688C82.0541 27.2831 81.9517 28.2892 82.1511 29.2598C82.3506 30.2304 82.8429 31.122 83.5657 31.8218C84.2886 32.5216 85.2096 32.9981 86.2123 33.1912C87.2149 33.3843 88.2542 33.2852 89.1987 32.9065C90.1431 32.5277 90.9504 31.8864 91.5184 31.0636C92.0863 30.2407 92.3895 29.2733 92.3895 28.2836C92.3881 26.957 91.843 25.6851 90.874 24.747C89.905 23.8089 88.5911 23.2813 87.2206 23.2799ZM87.2206 20.234C88.8653 20.2336 90.4732 20.7055 91.8408 21.5898C93.2085 22.4741 94.2746 23.7311 94.9042 25.202C95.5339 26.6728 95.6988 28.2914 95.3781 29.853C95.0575 31.4146 94.2657 32.8491 93.1028 33.975C91.94 35.1009 90.4583 35.8678 88.8453 36.1785C87.2322 36.4892 85.5602 36.3299 84.0407 35.7207C82.5212 35.1115 81.2224 34.0798 80.3086 32.756C79.3948 31.4322 78.9071 29.8758 78.9071 28.2836C78.9071 26.1487 79.7832 24.1013 81.3426 22.5917C82.902 21.0821 85.0171 20.234 87.2224 20.234H87.2206ZM152.262 23.2799C151.24 23.2799 150.241 23.5734 149.391 24.1232C148.541 24.673 147.878 25.4545 147.487 26.3688C147.096 27.2831 146.993 28.2892 147.193 29.2598C147.392 30.2304 147.885 31.122 148.607 31.8218C149.33 32.5216 150.251 32.9981 151.254 33.1912C152.257 33.3843 153.296 33.2852 154.24 32.9065C155.185 32.5277 155.992 31.8864 156.56 31.0636C157.128 30.2407 157.431 29.2733 157.431 28.2836C157.43 26.957 156.885 25.6851 155.916 24.747C154.947 23.8089 153.633 23.2813 152.262 23.2799ZM152.262 20.234C153.907 20.234 155.515 20.7061 156.882 21.5906C158.25 22.4751 159.315 23.7323 159.945 25.2032C160.574 26.674 160.739 28.2926 160.418 29.8541C160.097 31.4155 159.305 32.8498 158.142 33.9756C156.979 35.1014 155.498 35.868 153.885 36.1786C152.272 36.4892 150.6 36.3298 149.08 35.7206C147.561 35.1113 146.262 34.0796 145.348 32.7558C144.435 31.432 143.947 29.8757 143.947 28.2836C143.947 26.1487 144.823 24.1013 146.383 22.5917C147.942 21.0821 150.057 20.234 152.262 20.234ZM70.0271 25.5947C70.0271 28.3605 67.7118 30.6975 64.853 30.6975H60.7836V36.0531H57.3601V20.4902H64.8601C67.7136 20.4902 70.0289 22.8272 70.0289 25.593L70.0271 25.5947ZM66.8806 25.5947C66.8806 24.5133 65.9718 23.5447 64.853 23.5447H60.7836V27.6516H64.8601C65.9736 27.6516 66.8842 26.6761 66.8842 25.593L66.8806 25.5947ZM54.4024 40.7767C54.2609 40.7766 54.1215 40.8095 53.9959 40.8725C53.8703 40.9355 53.7621 41.0269 53.6806 41.1388C53.6806 41.1388 52.9095 41.993 52.493 42.3945C49.8718 44.9356 46.5459 46.6865 42.9178 47.4352C39.2898 48.184 35.5154 47.8984 32.0516 46.613C28.5878 45.3277 25.5832 43.0978 23.4017 40.1933C21.2202 37.2889 19.9554 33.8344 19.7604 30.2483C19.5654 26.6623 20.4486 23.0984 22.303 19.9882C24.1574 16.8781 26.9035 14.3551 30.2088 12.7248C33.514 11.0946 37.2366 10.4269 40.9258 10.8028C44.615 11.1786 48.1125 12.5818 50.9948 14.8425C50.8338 15.2953 50.838 15.7878 51.0069 16.2379C51.1757 16.688 51.4989 17.0685 51.9225 17.3157C52.3462 17.563 52.8446 17.6621 53.3346 17.5966C53.8246 17.5311 54.2766 17.3049 54.6151 16.9557C54.9536 16.6066 55.1582 16.1556 55.1947 15.678C55.2312 15.2004 55.0974 14.7252 54.8156 14.3316C54.5339 13.938 54.1212 13.6499 53.6465 13.5153C53.1718 13.3807 52.6637 13.4077 52.2071 13.592C49.0086 11.055 45.1059 9.49152 40.9908 9.09851C36.8758 8.7055 32.7327 9.5006 29.0838 11.3836C25.4348 13.2665 22.4434 16.1531 20.4865 19.6794C18.5296 23.2057 17.695 27.2139 18.0877 31.1987C18.4804 35.1835 20.0829 38.9666 22.6932 42.0711C25.3036 45.1756 28.8049 47.4625 32.7558 48.6436C36.7067 49.8247 40.9304 49.8471 44.8944 48.7079C48.8584 47.5688 52.3854 45.3191 55.0306 42.2424C55.1557 42.1231 55.2411 41.9703 55.2759 41.8036C55.3108 41.637 55.2934 41.4641 55.2261 41.307C55.1589 41.15 55.0447 41.0159 54.8983 40.9221C54.7518 40.8282 54.5798 40.7788 54.4042 40.7801L54.4024 40.7767Z" fill="black" fill-opacity="0.8"/>
<path d="M47.333 36.0531H43.4506L38.9912 23.8044L36.4871 30.5045H40.3412L41.4001 33.4206H35.5465L34.5336 36.0566H30.6512L36.8453 20.4936H41.1353L47.333 36.0531ZM116.554 36.0531V33.137H109.756V20.4953H106.309V36.0583L116.554 36.0531ZM136.419 36.0531V33.137H129.625V20.4953H126.173V36.0583L136.419 36.0531ZM87.2206 23.2799C86.1983 23.2799 85.199 23.5734 84.349 24.1232C83.499 24.673 82.8365 25.4545 82.4453 26.3688C82.0541 27.2831 81.9517 28.2892 82.1511 29.2598C82.3506 30.2304 82.8429 31.122 83.5657 31.8218C84.2886 32.5216 85.2096 32.9981 86.2123 33.1912C87.2149 33.3843 88.2542 33.2852 89.1987 32.9065C90.1431 32.5277 90.9504 31.8864 91.5184 31.0636C92.0863 30.2407 92.3895 29.2733 92.3895 28.2836C92.3881 26.957 91.843 25.6851 90.874 24.747C89.905 23.8089 88.5911 23.2813 87.2206 23.2799ZM87.2206 20.234C88.8653 20.2336 90.4732 20.7055 91.8408 21.5898C93.2085 22.4741 94.2746 23.7311 94.9042 25.202C95.5339 26.6728 95.6988 28.2914 95.3781 29.853C95.0575 31.4146 94.2657 32.8491 93.1028 33.975C91.94 35.1009 90.4583 35.8678 88.8453 36.1785C87.2322 36.4892 85.5602 36.3299 84.0407 35.7207C82.5212 35.1115 81.2224 34.0798 80.3086 32.756C79.3948 31.4322 78.9071 29.8758 78.9071 28.2836C78.9071 26.1487 79.7832 24.1013 81.3426 22.5917C82.902 21.0821 85.0171 20.234 87.2224 20.234H87.2206ZM152.262 23.2799C151.24 23.2799 150.241 23.5734 149.391 24.1232C148.541 24.673 147.878 25.4545 147.487 26.3688C147.096 27.2831 146.993 28.2892 147.193 29.2598C147.392 30.2304 147.885 31.122 148.607 31.8218C149.33 32.5216 150.251 32.9981 151.254 33.1912C152.257 33.3843 153.296 33.2852 154.24 32.9065C155.185 32.5277 155.992 31.8864 156.56 31.0636C157.128 30.2407 157.431 29.2733 157.431 28.2836C157.43 26.957 156.885 25.6851 155.916 24.747C154.947 23.8089 153.633 23.2813 152.262 23.2799ZM152.262 20.234C153.907 20.234 155.515 20.7061 156.882 21.5906C158.25 22.4751 159.315 23.7323 159.945 25.2032C160.574 26.674 160.739 28.2926 160.418 29.8541C160.097 31.4155 159.305 32.8498 158.142 33.9756C156.979 35.1014 155.498 35.868 153.885 36.1786C152.272 36.4892 150.6 36.3298 149.08 35.7206C147.561 35.1113 146.262 34.0796 145.348 32.7558C144.435 31.432 143.947 29.8757 143.947 28.2836C143.947 26.1487 144.823 24.1013 146.383 22.5917C147.942 21.0821 150.057 20.234 152.262 20.234ZM70.0271 25.5947C70.0271 28.3605 67.7118 30.6975 64.853 30.6975H60.7836V36.0531H57.3601V20.4902H64.8601C67.7136 20.4902 70.0289 22.8272 70.0289 25.593L70.0271 25.5947ZM66.8806 25.5947C66.8806 24.5133 65.9718 23.5447 64.853 23.5447H60.7836V27.6516H64.8601C65.9736 27.6516 66.8842 26.6761 66.8842 25.593L66.8806 25.5947ZM54.4024 40.7767C54.2609 40.7766 54.1215 40.8095 53.9959 40.8725C53.8703 40.9355 53.7621 41.0269 53.6806 41.1388C53.6806 41.1388 52.9095 41.993 52.493 42.3945C49.8718 44.9356 46.5459 46.6865 42.9178 47.4352C39.2898 48.184 35.5154 47.8984 32.0516 46.613C28.5878 45.3277 25.5832 43.0978 23.4017 40.1933C21.2202 37.2889 19.9554 33.8344 19.7604 30.2483C19.5654 26.6623 20.4486 23.0984 22.303 19.9882C24.1574 16.8781 26.9035 14.3551 30.2088 12.7248C33.514 11.0946 37.2366 10.4269 40.9258 10.8028C44.615 11.1786 48.1125 12.5818 50.9948 14.8425C50.8338 15.2953 50.838 15.7878 51.0069 16.2379C51.1757 16.688 51.4989 17.0685 51.9225 17.3157C52.3462 17.563 52.8446 17.6621 53.3346 17.5966C53.8246 17.5311 54.2766 17.3049 54.6151 16.9557C54.9536 16.6066 55.1582 16.1556 55.1947 15.678C55.2312 15.2004 55.0974 14.7252 54.8156 14.3316C54.5339 13.938 54.1212 13.6499 53.6465 13.5153C53.1718 13.3807 52.6637 13.4077 52.2071 13.592C49.0086 11.055 45.1059 9.49152 40.9908 9.09851C36.8758 8.7055 32.7327 9.5006 29.0838 11.3836C25.4348 13.2665 22.4434 16.1531 20.4865 19.6794C18.5296 23.2057 17.695 27.2139 18.0877 31.1987C18.4804 35.1835 20.0829 38.9666 22.6932 42.0711C25.3036 45.1756 28.8049 47.4625 32.7558 48.6436C36.7067 49.8247 40.9304 49.8471 44.8944 48.7079C48.8584 47.5688 52.3854 45.3191 55.0306 42.2424C55.1557 42.1231 55.2411 41.9703 55.2759 41.8036C55.3108 41.637 55.2934 41.4641 55.2261 41.307C55.1589 41.15 55.0447 41.0159 54.8983 40.9221C54.7518 40.8282 54.5798 40.7788 54.4042 40.7801L54.4024 40.7767Z" fill="black" fill-opacity="0.8"/>
</svg>
