<svg width="32" height="32" viewBox="0 0 24 24" fill="none" xmlns="http://www.w3.org/2000/svg">
<path d="M20.5721 15.0311C20.4827 15.0311 20.4064 15.0382 20.3316 15.0297C20.1799 15.0126 20.0281 15.0159 19.8761 15.0114C19.7781 15.0089 19.781 15.0089 19.7727 14.9155C19.7484 14.6306 19.7219 14.346 19.6959 14.0613C19.6733 13.8113 19.6519 13.561 19.627 13.3112C19.6044 13.0823 19.5773 12.8539 19.5527 12.6252C19.5293 12.4104 19.5076 12.1952 19.4833 11.9806C19.4525 11.7105 19.4207 11.4405 19.3879 11.1706C19.3584 10.9321 19.3293 10.693 19.2967 10.4548C19.2457 10.0854 19.1935 9.71621 19.1401 9.34717C19.083 8.95397 19.0144 8.56274 18.9427 8.17208C18.9298 8.10204 18.9316 8.09951 18.9996 8.08826C19.2824 8.04073 19.5667 8.00023 19.8544 8.00641C19.8856 8.00726 19.917 8.00782 19.9479 8.01176C19.9984 8.01795 20.0247 8.04213 20.0276 8.10007C20.0376 8.30202 20.0519 8.50396 20.067 8.70562C20.0913 9.0361 20.1176 9.36658 20.1427 9.69678C20.1587 9.90941 20.1724 10.1215 20.1887 10.3335C20.2147 10.6744 20.2421 11.015 20.2684 11.3559C20.2844 11.5643 20.2984 11.7733 20.3147 11.9817C20.3396 12.2877 20.3667 12.5935 20.3919 12.8992C20.4079 13.0938 20.4221 13.2887 20.439 13.4834C20.4639 13.7717 20.4907 14.0599 20.5161 14.3482C20.5353 14.5732 20.5527 14.7988 20.5721 15.0311V15.0311ZM9.6212 8.00951C9.66262 8.00951 9.7252 8.00501 9.78691 8.01063C9.86548 8.01766 9.88063 8.03763 9.88548 8.11526C9.90806 8.47021 9.9292 8.82544 9.9532 9.18067C9.97948 9.56374 10.0083 9.94625 10.0372 10.3288C10.0638 10.6801 10.0903 11.0314 10.1189 11.3826C10.1501 11.7685 10.1846 12.1539 10.2161 12.5397C10.2398 12.8353 10.2601 13.1309 10.2846 13.4268C10.3081 13.7013 10.3355 13.9753 10.3606 14.2495C10.3821 14.4855 10.4038 14.7217 10.4246 14.958C10.4312 15.0328 10.4258 15.0376 10.3438 15.0356C10.1292 15.0306 9.91577 15.0058 9.7012 15.0117C9.65205 15.0131 9.63777 14.9909 9.62948 14.9451C9.61177 14.8452 9.61462 14.7437 9.60377 14.6427C9.57434 14.3758 9.55748 14.1078 9.53262 13.8403C9.51034 13.5973 9.48348 13.3548 9.45805 13.1121C9.43548 12.8902 9.41319 12.6683 9.38919 12.4461C9.36519 12.2281 9.33976 12.0098 9.31462 11.7916C9.29148 11.5908 9.26891 11.39 9.24434 11.1891C9.20805 10.8949 9.17205 10.6007 9.13262 10.3071C9.09633 10.0377 9.05519 9.76906 9.01662 9.4999C8.96405 9.13426 8.9049 8.76947 8.83947 8.40608C8.82452 8.3238 8.80871 8.24167 8.79205 8.1597C8.78347 8.11836 8.79119 8.09445 8.83919 8.08798C8.96548 8.07139 9.09148 8.04551 9.21833 8.03342C9.34519 8.02188 9.47205 7.99854 9.6212 8.00951V8.00951ZM18.6067 11.5556C18.8484 11.5556 18.8541 11.5573 18.893 11.7713C18.9407 12.0354 18.9741 12.3018 19.0058 12.5681C19.0393 12.8519 19.073 13.1357 19.1038 13.4198C19.1287 13.6485 19.1496 13.8777 19.173 14.1063C19.1976 14.346 19.2236 14.5848 19.249 14.8241C19.263 14.9594 19.2761 15.0947 19.2919 15.2297C19.2964 15.2688 19.2844 15.2896 19.2453 15.2941C19.1627 15.3034 19.0807 15.3141 18.9984 15.3228C18.8476 15.3388 18.6964 15.3546 18.5453 15.3684C18.4673 15.3754 18.4621 15.3712 18.4476 15.2969C18.315 14.6233 18.1821 13.9503 18.0507 13.2764C17.9633 12.8283 17.8781 12.38 17.7924 11.9319C17.7809 11.8703 17.7702 11.8085 17.7604 11.7466C17.7547 11.7112 17.7644 11.6884 17.8053 11.6788C18.0776 11.6161 18.3527 11.5677 18.6067 11.5556ZM8.45119 11.5556C8.70976 11.5556 8.70862 11.5565 8.74862 11.7874C8.81033 12.1449 8.85405 12.5043 8.89319 12.8649C8.93148 13.2148 8.97319 13.5644 9.01062 13.9142C9.03605 14.1536 9.05605 14.3935 9.07976 14.6326C9.09662 14.8027 9.11662 14.9723 9.13491 15.1422C9.13719 15.163 9.13833 15.1839 9.13976 15.2049C9.14348 15.2882 9.13976 15.2949 9.05833 15.3031C8.8969 15.3197 8.73519 15.3335 8.57376 15.3492C8.51519 15.3549 8.4569 15.3633 8.3989 15.3689C8.32176 15.376 8.31918 15.3757 8.30404 15.2989C8.24976 15.0292 8.19718 14.7589 8.14404 14.4891C8.01661 13.8394 7.88775 13.1903 7.76118 12.5406C7.71061 12.2807 7.66718 12.0197 7.61746 11.7595C7.60832 11.712 7.61518 11.6898 7.66518 11.6782C7.9349 11.6164 8.20633 11.568 8.45119 11.5556V11.5556ZM11.8641 14.2799V15.3703C11.8641 15.3807 11.8629 15.3914 11.8644 15.4018C11.8698 15.4547 11.8501 15.478 11.7946 15.4758C11.7218 15.4727 11.6495 15.4747 11.5766 15.4764C11.4246 15.4792 11.2724 15.4733 11.1206 15.4904C11.0366 15.5 11.0384 15.4949 11.0301 15.4077C11.0052 15.1332 10.9781 14.859 10.9526 14.5845C10.9292 14.3311 10.9081 14.0771 10.8841 13.8237C10.8598 13.563 10.8326 13.3031 10.8081 13.0426C10.7912 12.8688 10.7763 12.6953 10.7615 12.5215C10.7421 12.2953 10.7241 12.0695 10.7038 11.8433C10.6952 11.748 10.7023 11.7345 10.7983 11.7247C11.046 11.6978 11.2955 11.6902 11.5444 11.7019C11.6064 11.7052 11.6681 11.7171 11.7281 11.7314C11.8038 11.7491 11.8121 11.7601 11.8161 11.838C11.8244 11.9949 11.8326 12.1519 11.8369 12.3091C11.8418 12.4838 11.8378 12.6587 11.8444 12.8334C11.8609 13.3152 11.8584 13.7975 11.8641 14.2799V14.2799ZM21.9993 14.3294V15.3619C21.9993 15.3793 21.9987 15.3968 21.9996 15.4145C22.0033 15.4598 21.9819 15.4758 21.9382 15.4755C21.8307 15.4747 21.7236 15.4755 21.6164 15.4769C21.4953 15.478 21.3744 15.4775 21.2536 15.4904C21.1739 15.4994 21.1733 15.4935 21.1662 15.4156C21.1333 15.0581 21.0987 14.7006 21.0656 14.3426C21.0353 14.0127 21.0073 13.6825 20.9764 13.3523C20.9447 13.0117 20.9102 12.6719 20.879 12.3316C20.8636 12.1612 20.8507 11.9907 20.8379 11.8203C20.8327 11.746 20.841 11.7328 20.9262 11.7261C21.0742 11.7145 21.2216 11.6948 21.3707 11.6974C21.5193 11.7002 21.6682 11.692 21.8159 11.7199C21.941 11.7435 21.9473 11.7505 21.9547 11.8822C21.9762 12.2694 21.9696 12.6579 21.9836 13.0452C21.9979 13.4575 21.9879 13.8698 21.9993 14.3294ZM18.3544 9.68187C18.4418 9.68693 18.5107 9.68272 18.5793 9.69762C18.623 9.70747 18.645 9.72687 18.6493 9.773C18.6698 9.99491 18.6921 10.2171 18.7147 10.4393C18.7327 10.6196 18.7518 10.7999 18.7704 10.9802L18.7721 10.9906C18.787 11.1042 18.7836 11.1073 18.6713 11.1135C18.5713 11.1188 18.4716 11.1275 18.3716 11.1334C18.3058 11.1374 18.285 11.1484 18.2741 11.0541C18.2367 10.7217 18.1933 10.3901 18.1518 10.0579C18.1404 9.96456 18.1276 9.87136 18.1136 9.77834C18.1053 9.72575 18.1261 9.69678 18.1761 9.69256C18.2418 9.68665 18.3076 9.68497 18.3544 9.68187V9.68187ZM8.23176 9.68328C8.29918 9.68693 8.36861 9.68187 8.43661 9.69734C8.47547 9.70606 8.49519 9.72209 8.4989 9.76569C8.50719 9.86975 8.52347 9.97354 8.53347 10.0776C8.56519 10.3968 8.59519 10.7163 8.6249 11.0359C8.63119 11.1053 8.62976 11.1067 8.56376 11.1115C8.44661 11.1199 8.32918 11.1284 8.21175 11.1332C8.14347 11.1363 8.1349 11.1281 8.12633 11.0595C8.09661 10.8243 8.06861 10.5889 8.04004 10.3535C8.0169 10.1594 7.99747 9.96538 7.96947 9.77187C7.96175 9.71844 7.97947 9.70381 8.0229 9.69509C8.09175 9.68131 8.1609 9.68581 8.23176 9.68328V9.68328ZM11.7966 10.5625C11.7966 10.7647 11.7972 10.9667 11.7964 11.1692C11.7964 11.26 11.7952 11.2606 11.7035 11.2595C11.5932 11.26 11.4829 11.2544 11.3732 11.2426C11.3024 11.2339 11.3009 11.2361 11.2989 11.1621C11.2918 10.9149 11.2844 10.6677 11.2792 10.4205C11.2755 10.2531 11.2735 10.0863 11.2632 9.91897C11.2578 9.83263 11.2626 9.83178 11.3469 9.83066C11.4712 9.82925 11.5952 9.83488 11.7186 9.85344C11.7929 9.86469 11.7964 9.86469 11.7966 9.94569C11.7972 10.1513 11.7972 10.3569 11.7972 10.5628H11.7966V10.5625ZM21.937 10.5678C21.937 10.7703 21.9376 10.9726 21.9367 11.1748C21.9367 11.2597 21.9353 11.2603 21.8487 11.2597C21.735 11.2587 21.6214 11.2535 21.5082 11.244C21.4519 11.2398 21.4353 11.2164 21.439 11.1661C21.4396 11.159 21.439 11.152 21.439 11.145C21.4304 10.7546 21.4219 10.3645 21.4139 9.9741C21.4136 9.95329 21.4124 9.93247 21.4133 9.91138C21.4144 9.83263 21.4147 9.83066 21.495 9.83122C21.6056 9.83178 21.7153 9.83741 21.8256 9.8481C21.9602 9.86131 21.9364 9.87763 21.937 9.98226C21.9376 10.1772 21.9373 10.3726 21.937 10.5678V10.5678ZM7.95432 11.0426C7.9569 11.1537 7.9569 11.1534 7.84889 11.1793C7.77547 11.197 7.70204 11.2164 7.62804 11.2324C7.56489 11.2465 7.55375 11.2386 7.54289 11.1776C7.46746 10.7636 7.39232 10.3493 7.31746 9.935C7.30232 9.84922 7.30632 9.84388 7.39203 9.82897C7.49746 9.81069 7.60261 9.79269 7.70804 9.77666C7.77518 9.76625 7.78375 9.76991 7.79718 9.84275C7.82375 9.98985 7.84889 10.1375 7.86861 10.2857C7.89918 10.5203 7.92432 10.7557 7.95175 10.9906C7.95404 11.0077 7.95347 11.0254 7.95432 11.0426V11.0426ZM17.4584 9.84078C17.5964 9.81856 17.7356 9.79606 17.8747 9.77441C17.9247 9.76681 17.9398 9.79775 17.9464 9.84163C17.9701 10.0036 17.9998 10.1645 18.0193 10.3268C18.0478 10.5619 18.087 10.7959 18.0944 11.033C18.095 11.0572 18.0947 11.082 18.0953 11.1062C18.0967 11.1439 18.0776 11.1633 18.0421 11.1714C17.9478 11.1922 17.8536 11.213 17.7596 11.2353C17.7144 11.246 17.6993 11.2271 17.6918 11.1838C17.6636 11.019 17.631 10.855 17.6021 10.6907C17.5533 10.4202 17.5058 10.1493 17.4584 9.87847C17.4573 9.86863 17.4584 9.85822 17.4584 9.84078V9.84078ZM11.1115 10.7906C11.1075 10.9346 11.1164 11.06 11.0964 11.1855C11.0904 11.2251 11.0786 11.2507 11.0352 11.2544C10.9421 11.262 10.8492 11.2693 10.7566 11.2786C10.7118 11.2834 10.6992 11.2642 10.6918 11.2209C10.6709 11.0929 10.6746 10.9633 10.6621 10.8348C10.6383 10.592 10.6283 10.3476 10.6123 10.104C10.6083 10.0447 10.6023 9.98591 10.5975 9.92657C10.5949 9.89338 10.6083 9.87481 10.6443 9.87341C10.7649 9.86863 10.8849 9.84697 11.0061 9.85119C11.0769 9.85372 11.0829 9.85822 11.0881 9.92854C11.0912 9.97719 11.0904 10.0264 11.0915 10.0754L11.1115 10.7906V10.7906ZM21.2476 10.6511C21.2476 10.8187 21.2496 10.9863 21.2473 11.154C21.2459 11.2412 21.2359 11.2488 21.1522 11.2564C21.0693 11.264 20.987 11.2701 20.9044 11.2789C20.8579 11.2836 20.8362 11.2701 20.8333 11.2175C20.8213 10.9948 20.805 10.772 20.7893 10.5496C20.777 10.365 20.763 10.1808 20.7499 9.9966C20.7484 9.97551 20.7496 9.95441 20.7482 9.9336C20.7462 9.89675 20.7576 9.8751 20.7996 9.87369C20.9167 9.86975 21.033 9.84753 21.151 9.85175C21.223 9.85428 21.2242 9.85541 21.2296 9.9291C21.247 10.1693 21.2487 10.41 21.2476 10.6511V10.6511ZM7.60832 13.6473C7.75632 13.8077 7.76375 13.9975 7.71489 14.1961C7.66575 14.3946 7.55375 14.5583 7.41803 14.7051C7.19032 14.9504 6.91517 15.1315 6.6226 15.2854C6.11888 15.5503 5.58487 15.7264 5.02773 15.8305C4.62687 15.905 4.22343 15.9624 3.81572 15.9843C3.69143 15.9911 3.56743 15.9967 3.44314 15.9958C3.35314 15.9958 3.26285 15.9984 3.17314 15.9953C3.09685 15.9925 3.08571 15.9795 3.07942 15.9011C3.05628 15.6195 3.03657 15.3377 3.01114 15.0562C2.98142 14.7299 2.94657 14.4039 2.91457 14.0777C2.89114 13.8417 2.87085 13.6051 2.84514 13.3697C2.81542 13.0924 2.78199 12.8157 2.74942 12.5383C2.71971 12.2824 2.69114 12.0259 2.65971 11.7697C2.62456 11.4859 2.58828 11.2026 2.54971 10.9194C2.51195 10.6467 2.47262 10.3741 2.4317 10.1018C2.36519 9.65359 2.29281 9.20626 2.21456 8.75991C2.15124 8.39596 2.08075 8.03325 2.00313 7.672C1.99284 7.62362 2.0077 7.60421 2.05084 7.5865C2.46428 7.41774 2.87628 7.24589 3.28943 7.07629C3.36628 7.04479 3.44514 7.01835 3.52686 7.00345C3.58343 6.99304 3.598 7.00457 3.59629 7.06054C3.592 7.2037 3.598 7.34743 3.58371 7.49002C3.58023 7.52828 3.57832 7.56665 3.578 7.60506C3.57143 8.11836 3.56514 8.63193 3.57886 9.14551C3.59086 9.59552 3.61486 10.0453 3.64143 10.495C3.66229 10.8499 3.69229 11.2049 3.72314 11.5593C3.75343 11.9066 3.79029 12.2534 3.82486 12.6008C3.83143 12.6669 3.83743 12.6731 3.91372 12.6629C4.06405 12.6407 4.21572 12.6284 4.36772 12.6261C4.84001 12.625 5.30459 12.6888 5.76402 12.796C6.16602 12.8899 6.55717 13.0151 6.93203 13.19C7.11775 13.2766 7.29546 13.3768 7.45746 13.5039C7.51261 13.5466 7.56175 13.5959 7.60832 13.6473V13.6473ZM17.6724 13.563C17.8553 13.7207 17.9218 13.914 17.8698 14.153C17.8267 14.3502 17.729 14.5159 17.5987 14.6641C17.3895 14.9023 17.1355 15.0834 16.8607 15.2348C16.3218 15.5318 15.7478 15.7247 15.1444 15.8361C14.815 15.8976 14.4828 15.9432 14.1489 15.9728C13.9598 15.9888 13.7698 16.0088 13.5575 15.9958H13.3095C13.2612 15.9958 13.2338 15.9809 13.2298 15.9244C13.2115 15.6775 13.1904 15.4308 13.1678 15.1841C13.1438 14.9237 13.1172 14.6632 13.0921 14.4028C13.0692 14.1634 13.0481 13.9235 13.0232 13.6842C13.0004 13.4586 12.9741 13.2336 12.9492 13.0083C12.9261 12.7968 12.9038 12.5853 12.8784 12.3741C12.8478 12.1181 12.8155 11.8622 12.7832 11.6062C12.7529 11.3675 12.7229 11.1289 12.6907 10.8904C12.6563 10.6348 12.6201 10.3794 12.5821 10.1243C12.5312 9.79325 12.4766 9.46333 12.4229 9.13285C12.348 8.66486 12.2613 8.19876 12.1629 7.735C12.1589 7.71447 12.1569 7.69337 12.1506 7.6734C12.1358 7.6284 12.1501 7.6045 12.1949 7.58706C12.6341 7.41802 13.0592 7.21411 13.5024 7.05323C13.5604 7.03185 13.6189 7.00795 13.6815 7.00176C13.7378 6.99613 13.7521 7.00513 13.7467 7.0642C13.7169 7.38455 13.7341 7.70659 13.7187 8.02723C13.7061 8.2888 13.7075 8.55121 13.7209 8.81306C13.7241 8.87944 13.7267 8.9461 13.7261 9.01219C13.7227 9.32664 13.7395 9.64081 13.7558 9.95469C13.7767 10.3695 13.8072 10.7836 13.8384 11.1979C13.8609 11.4968 13.8904 11.7952 13.9189 12.0939C13.9341 12.2574 13.9504 12.4205 13.9709 12.5831C13.9821 12.6728 13.9867 12.6736 14.0761 12.6618C14.2338 12.6407 14.3918 12.6236 14.5512 12.6258C15.1107 12.6328 15.659 12.7197 16.197 12.8708C16.5613 12.9726 16.9158 13.0997 17.2507 13.2778C17.4018 13.3568 17.5432 13.4525 17.6724 13.563V13.563ZM4.75372 15.1124C4.96058 15.0151 5.96488 14.2425 6.04459 14.1165C5.55716 13.9097 5.06801 13.7177 4.54201 13.5604L4.75372 15.1124ZM16.1607 14.1671C16.1864 14.1398 16.1835 14.1187 16.1487 14.1035C16.0793 14.0723 16.0104 14.0391 15.9401 14.0107C15.565 13.8597 15.1881 13.7134 14.8015 13.5942C14.7678 13.5841 14.7332 13.561 14.6901 13.5807L14.8984 15.1057C14.9292 15.1124 14.9412 15.0983 14.955 15.0888C15.3061 14.8351 15.6595 14.5845 15.9967 14.3117C16.0535 14.2661 16.1098 14.2203 16.1607 14.1671V14.1671Z" fill="black"/>
</svg>
