<svg width="32" height="32" viewBox="0 0 24 24" fill="none" xmlns="http://www.w3.org/2000/svg">
<path fill-rule="evenodd" clip-rule="evenodd" d="M2 12C2 14.4799 2.90795 16.7522 4.40879 18.5018C4.43946 18.5451 4.47481 18.5859 4.51482 18.6235C6.34842 20.6931 9.02483 22 12 22C12.9925 22 13.9517 21.8546 14.8575 21.5839C14.8689 21.5808 14.8803 21.5773 14.8915 21.5737C18.0764 20.6096 20.5954 18.0957 21.5668 14.914C21.5801 14.8789 21.5907 14.8433 21.5987 14.8074C21.8599 13.9164 22 12.9742 22 12C22 9.53782 21.105 7.28026 19.6232 5.53568C19.5887 5.48483 19.5478 5.43723 19.5007 5.39407C17.6667 3.31424 14.9836 2 12 2C7.48684 2 3.66117 5.00723 2.42205 9.12262C2.41512 9.14265 2.40891 9.16311 2.40346 9.18397L2.40125 9.19265C2.14012 10.0837 2 11.0258 2 12ZM15.5532 19.5972C17.5001 18.6833 19.0403 17.0426 19.8227 15.0264C18.1784 14.2223 16.6422 13.8502 15.2242 13.7878C15.5545 15.7224 15.6646 17.6606 15.5532 19.5972ZM14.8987 12.18C16.6664 12.197 18.4684 12.6172 20.2617 13.45C20.3441 12.9789 20.3871 12.4944 20.3871 12C20.3871 10.2337 19.8387 8.59337 18.9031 7.24041C17.611 8.55313 16.0836 9.52695 14.3441 10.1566C14.5558 10.8302 14.7407 11.5048 14.8987 12.18ZM12.7965 10.613C12.9716 11.1685 13.1273 11.7243 13.2637 12.2805C10.344 12.6701 7.55844 14.184 5.10957 16.7779C4.16628 15.4214 3.6129 13.7743 3.6129 12C3.6129 11.4399 3.66805 10.8925 3.77319 10.3629C5.65841 10.7999 7.43739 11.0162 9.09701 11.0162C10.4059 11.0162 11.6409 10.8814 12.7965 10.613ZM13.8147 8.62136C15.3708 8.05507 16.7257 7.18052 17.858 6.00238C16.3454 4.52463 14.2775 3.6129 12 3.6129C11.8111 3.6129 11.6236 3.61918 11.4378 3.63153C12.3947 5.28607 13.1873 6.95052 13.8147 8.62136ZM9.73873 3.92233C10.7644 5.63052 11.6052 7.34782 12.26 9.0701C9.93837 9.57863 7.24667 9.49751 4.24092 8.81452C5.21595 6.44733 7.24388 4.62128 9.73873 3.92233ZM13.5974 13.8515C13.9757 15.9589 14.0758 18.068 13.8953 20.1713C13.2861 20.3125 12.6516 20.3871 12 20.3871C9.73279 20.3871 7.67325 19.4836 6.16244 18.0175C7.78551 16.269 10.3154 14.2567 13.5974 13.8515Z" fill="black"/>
</svg>
