<svg width="20" height="20" viewBox="0 0 20 20" fill="none" xmlns="http://www.w3.org/2000/svg">
<path fill-rule="evenodd" clip-rule="evenodd" d="M16.6822 3.08341C16.966 2.94218 17.081 2.59869 16.9391 2.31622C16.7972 2.03375 16.4522 1.91926 16.1684 2.0605L13.9989 3.14029L13.9859 3.12107L13.8354 3.22165L10.2761 4.99314L10.2738 4.98794C10.0513 5.0829 9.83626 5.19218 9.62986 5.31477L1.31756 9.45186C1.1233 9.54854 1.00043 9.746 1 9.96219C0.999571 10.1784 1.12166 10.3763 1.31552 10.4738L16.1665 17.9385C16.4497 18.0808 16.7952 17.9677 16.9382 17.6858C17.0812 17.4039 16.9676 17.06 16.6844 16.9176L14.5986 15.8692C15.5854 14.0521 16.101 12.012 16.09 9.9352C16.0793 7.89876 15.5627 5.90289 14.5942 4.12264L16.6822 3.08341ZM2.85394 9.96584L7.4968 7.65506C7.18011 8.32325 7.00278 9.05173 6.9793 9.7962C6.95188 10.6656 7.13525 11.5264 7.51081 12.3066L2.85394 9.96584ZM10.4825 13.7799L10.4742 13.7961L13.5726 15.3535C14.4779 13.6977 14.9511 11.8363 14.9411 9.94121C14.9313 8.08093 14.4562 6.25798 13.5659 4.63441L10.3505 6.23475C10.7178 6.62344 11.0266 7.06526 11.2656 7.54666C11.6393 8.29951 11.832 9.12854 11.8285 9.96826C11.825 10.808 11.6255 11.6354 11.2456 12.3852C11.0021 12.8657 10.6888 13.3059 10.3172 13.6922C10.3715 13.7226 10.4267 13.7518 10.4825 13.7799ZM9.39234 12.997C9.72739 12.6699 10.0073 12.2895 10.2197 11.8702C10.5194 11.2787 10.6769 10.626 10.6796 9.96356C10.6823 9.30114 10.5303 8.64716 10.2355 8.05327C10.0255 7.63025 9.74722 7.24597 9.41284 6.91521C9.21265 7.11059 9.03127 7.32591 8.87184 7.55859C8.41147 8.23048 8.15331 9.0192 8.12767 9.83209C8.10203 10.645 8.30999 11.4483 8.72712 12.1476C8.91291 12.4591 9.13676 12.7441 9.39234 12.997Z" fill="black"/>
</svg>
