<svg width="32" height="32" viewBox="0 0 24 24" fill="none" xmlns="http://www.w3.org/2000/svg">
<path fill-rule="evenodd" clip-rule="evenodd" d="M11.5 2C5.69875 2 1 6.58819 1 12.2529C1 16.7899 4.00562 20.6219 8.17937 21.9804C8.70437 22.0701 8.90125 21.7625 8.90125 21.4934C8.90125 21.2499 8.88813 20.4425 8.88813 19.5838C6.25 20.058 5.5675 18.9558 5.3575 18.3791C5.23937 18.0843 4.7275 17.1743 4.28125 16.9308C3.91375 16.7386 3.38875 16.2644 4.26813 16.2516C5.095 16.2388 5.68563 16.9949 5.8825 17.3025C6.8275 18.8533 8.33688 18.4175 8.94063 18.1484C9.0325 17.4819 9.30812 17.0334 9.61 16.777C7.27375 16.5207 4.8325 15.6364 4.8325 11.7147C4.8325 10.5997 5.23938 9.67689 5.90875 8.95918C5.80375 8.70286 5.43625 7.65193 6.01375 6.24215C6.01375 6.24215 6.89313 5.97301 8.90125 7.29308C9.74125 7.06239 10.6338 6.94704 11.5263 6.94704C12.4188 6.94704 13.3113 7.06239 14.1513 7.29308C16.1594 5.9602 17.0388 6.24215 17.0388 6.24215C17.6163 7.65193 17.2488 8.70286 17.1438 8.95918C17.8131 9.67689 18.22 10.5868 18.22 11.7147C18.22 15.6492 15.7656 16.5207 13.4294 16.777C13.81 17.0975 14.1381 17.7126 14.1381 18.6738C14.1381 20.0452 14.125 21.1474 14.125 21.4934C14.125 21.7625 14.3219 22.0829 14.8469 21.9804C18.9944 20.6219 22 16.777 22 12.2529C22 6.58819 17.3013 2 11.5 2Z" fill="black"/>
</svg>
