<svg width="32" height="32" viewBox="0 0 24 24" fill="none" xmlns="http://www.w3.org/2000/svg">
<path fill-rule="evenodd" clip-rule="evenodd" d="M12.0004 9.00173C10.3435 9.00173 9.00072 10.3456 9.00072 12.003C9.00072 13.6603 10.3435 15.0042 12.0004 15.0042C13.6572 15.0042 15.0007 13.6603 15.0007 12.003C15.0007 10.3456 13.6572 9.00173 12.0004 9.00173ZM12.0004 16.6259C9.44786 16.6259 7.37878 14.5562 7.37878 12.003C7.37878 9.44972 9.44786 7.38005 12.0004 7.38005C14.5529 7.38005 16.6219 9.44972 16.6219 12.003C16.6219 14.5562 14.5529 16.6259 12.0004 16.6259ZM15.9066 7.79703C15.788 7.61932 15.7248 7.41042 15.7249 7.19675C15.7251 6.91034 15.839 6.63573 16.0415 6.43325C16.244 6.23076 16.5186 6.11696 16.8049 6.11682H16.8053C17.0189 6.11691 17.2277 6.18036 17.4053 6.29914C17.5829 6.41792 17.7212 6.5867 17.8029 6.78414C17.8846 6.98159 17.9059 7.19882 17.8641 7.40837C17.8223 7.61792 17.7194 7.81038 17.5683 7.96141C17.4172 8.11244 17.2247 8.21526 17.0152 8.25686C16.8057 8.29846 16.5885 8.27698 16.3912 8.19513C16.1939 8.11328 16.0252 7.97474 15.9066 7.79703ZM6.69281 19.0215C7.00977 19.145 7.48672 19.2912 8.36421 19.3312C9.31264 19.3748 9.59683 19.3835 12.0004 19.3835C14.4039 19.3835 14.6889 19.3748 15.6376 19.3312C16.5151 19.2913 16.9922 19.145 17.309 19.0215C17.7292 18.8578 18.0294 18.6626 18.3442 18.348C18.659 18.0334 18.8539 17.7335 19.0175 17.3132C19.1402 16.9961 19.2871 16.5191 19.3271 15.6413C19.3707 14.6915 19.3794 14.4073 19.3794 12.003C19.3794 9.59881 19.3707 9.31453 19.3271 8.36476C19.2872 7.487 19.141 7.00977 19.0175 6.69287C18.8539 6.27254 18.6595 5.9722 18.3442 5.65731C18.029 5.34243 17.7292 5.14681 17.309 4.98389C16.9912 4.86145 16.5151 4.71416 15.6376 4.67419C14.6881 4.63126 14.4028 4.62183 12.0004 4.62183C9.59791 4.62183 9.31292 4.63054 8.36421 4.67419C7.48672 4.71409 7.00962 4.8603 6.69281 4.98389C6.27188 5.14681 5.97235 5.34199 5.65755 5.65731C5.34276 5.97263 5.14792 6.27254 4.98433 6.69287C4.86192 7.01071 4.71468 7.487 4.67472 8.36476C4.6318 9.31453 4.62237 9.59881 4.62237 12.003C4.62237 14.4073 4.63108 14.6923 4.67472 15.6413C4.7146 16.5191 4.86077 16.9963 4.98433 17.3132C5.1472 17.7335 5.34233 18.0331 5.65755 18.348C5.97278 18.6629 6.2726 18.8578 6.69281 19.0215ZM6.10505 3.47269C6.67683 3.25014 7.33155 3.09817 8.28969 3.05452C9.24985 3.01016 9.55687 3 12.0011 3C14.4453 3 14.7521 3.01088 15.7117 3.05452C16.6692 3.09745 17.3235 3.25014 17.8964 3.47269C18.4875 3.70252 18.9899 4.01006 19.49 4.51113C19.9902 5.0122 20.2978 5.51399 20.5282 6.10595C20.7507 6.67789 20.9026 7.33273 20.9462 8.29122C20.9898 9.25115 21 9.55804 21 12.003C21 14.4479 20.9898 14.754 20.9462 15.7147C20.9033 16.6731 20.7507 17.3277 20.5282 17.9C20.2978 18.4919 19.991 18.9945 19.49 19.4948C18.9891 19.9951 18.4875 20.3028 17.8957 20.5332C17.3235 20.7558 16.6692 20.9077 15.711 20.9514C14.7514 20.9958 14.4446 21.0059 12.0004 21.0059C9.55615 21.0059 9.24985 20.995 8.28969 20.9514C7.33155 20.9077 6.67791 20.7558 6.10505 20.5332C5.5129 20.3028 5.01154 19.9949 4.51069 19.4948C4.00984 18.9947 3.70232 18.4919 3.47255 17.9C3.25007 17.3277 3.09814 16.6732 3.05451 15.7147C3.01015 14.7548 3 14.4479 3 12.003C3 9.55804 3.01015 9.25115 3.05451 8.29122C3.09814 7.3328 3.25007 6.67825 3.47255 6.10595C3.70232 5.51363 4.00977 5.0114 4.51069 4.51113C5.01162 4.01085 5.5129 3.70252 6.10505 3.47269Z" fill="black"/>
</svg>
