<svg width="20" height="20" viewBox="0 0 20 20" fill="none" xmlns="http://www.w3.org/2000/svg">
<path d="M9.0734 8.25543C8.96248 8.10994 8.80442 7.98963 8.59923 7.8945C8.39958 7.79378 8.19715 7.74341 7.99196 7.74341C7.86995 7.74341 7.74794 7.7602 7.62593 7.79378C7.50392 7.82176 7.393 7.86932 7.29318 7.93647C7.19335 7.99802 7.11016 8.08196 7.04361 8.18828C6.98261 8.28901 6.95211 8.41212 6.95211 8.55761C6.95211 8.69191 6.97984 8.80662 7.0353 8.90175C7.09075 8.99688 7.16562 9.07802 7.2599 9.14517C7.35973 9.21232 7.47896 9.27107 7.61761 9.32144C7.75626 9.3718 7.90877 9.42216 8.07514 9.47252C8.2637 9.53408 8.45781 9.60403 8.65746 9.68237C8.86266 9.76071 9.04844 9.86423 9.21482 9.99294C9.38674 10.1216 9.52539 10.2839 9.63076 10.4798C9.74168 10.6756 9.79713 10.919 9.79713 11.21C9.79713 11.529 9.7389 11.8088 9.62244 12.0494C9.50598 12.2844 9.35069 12.4803 9.15659 12.637C8.96248 12.7936 8.7351 12.9112 8.47445 12.9895C8.21379 13.0678 7.93927 13.107 7.65089 13.107C7.26822 13.107 6.89388 13.0371 6.52785 12.8972C6.16182 12.7517 5.86234 12.539 5.62942 12.2592L6.37811 11.5542C6.5223 11.7556 6.71363 11.9151 6.95211 12.0326C7.19612 12.1501 7.4346 12.2089 7.66752 12.2089C7.78953 12.2089 7.91431 12.1949 8.04187 12.1669C8.16942 12.1333 8.28311 12.0802 8.38294 12.0074C8.48831 11.9347 8.5715 11.8452 8.6325 11.7388C8.69905 11.6269 8.73233 11.4898 8.73233 11.3275C8.73233 11.1709 8.69628 11.0422 8.62418 10.9414C8.55209 10.8351 8.45504 10.7456 8.33303 10.6728C8.21102 10.5945 8.06683 10.5273 7.90045 10.4714L7.37637 10.2951C7.1989 10.2392 7.02143 10.172 6.84396 10.0937C6.66649 10.0153 6.50566 9.9118 6.36147 9.78309C6.22283 9.65439 6.10914 9.49771 6.0204 9.31304C5.93167 9.12279 5.8873 8.88776 5.8873 8.60797C5.8873 8.30579 5.94831 8.04559 6.07031 7.82735C6.19787 7.60911 6.36147 7.43005 6.56112 7.29015C6.76632 7.14466 6.99647 7.03834 7.25158 6.97119C7.51224 6.89844 7.77567 6.86207 8.04187 6.86207C8.34135 6.86207 8.64359 6.91523 8.94862 7.02155C9.25919 7.12787 9.52816 7.28735 9.75554 7.5L9.0734 8.25543Z" fill="black"/>
<path d="M3.72253 7.01316H4.7707V12.9559H3.72253V7.01316Z" fill="black"/>
<path fill-rule="evenodd" clip-rule="evenodd" d="M10.7972 8.68351C10.6419 9.06403 10.5643 9.49211 10.5643 9.96775C10.5643 10.4322 10.6419 10.8575 10.7972 11.2436C10.958 11.6241 11.1771 11.9543 11.4544 12.2341C11.7372 12.5083 12.07 12.7237 12.4526 12.8804C12.8409 13.0315 13.2623 13.107 13.7171 13.107C14.1774 13.107 14.6017 13.0315 14.9899 12.8804C15.3781 12.7237 15.7136 12.5083 15.9965 12.2341C16.2793 11.9543 16.4984 11.6241 16.6536 11.2436C16.8145 10.8575 16.8949 10.4322 16.8949 9.96775C16.8949 9.49211 16.8145 9.06403 16.6536 8.68351C16.4984 8.2974 16.2793 7.97005 15.9965 7.70145C15.7136 7.43285 15.3781 7.2258 14.9899 7.08031C14.6017 6.93482 14.1774 6.86207 13.7171 6.86207C13.2623 6.86207 12.8409 6.93482 12.4526 7.08031C12.07 7.2258 11.7372 7.43285 11.4544 7.70145C11.1771 7.97005 10.958 8.2974 10.7972 8.68351ZM11.8454 10.8491C11.7511 10.5805 11.704 10.2867 11.704 9.96775C11.704 9.65998 11.7511 9.3746 11.8454 9.11159C11.9452 8.84859 12.0839 8.61916 12.2613 8.42331C12.4388 8.22745 12.6495 8.07357 12.8935 7.96165C13.1431 7.84974 13.4204 7.79378 13.7254 7.79378C14.0304 7.79378 14.3077 7.84974 14.5573 7.96165C14.8069 8.07357 15.0204 8.22745 15.1979 8.42331C15.3753 8.61916 15.5112 8.84859 15.6055 9.11159C15.7053 9.3746 15.7552 9.65998 15.7552 9.96775C15.7552 10.2867 15.7053 10.5805 15.6055 10.8491C15.5112 11.1121 15.3725 11.3415 15.1895 11.5374C15.0121 11.7332 14.7985 11.8871 14.549 11.999C14.2994 12.1054 14.0249 12.1585 13.7254 12.1585C13.4259 12.1585 13.1514 12.1054 12.9019 11.999C12.6578 11.8871 12.4443 11.7332 12.2613 11.5374C12.0839 11.3415 11.9452 11.1121 11.8454 10.8491Z" fill="black"/>
<path fill-rule="evenodd" clip-rule="evenodd" d="M1 16V4H19V16H1ZM2.28571 5.2973H17.7143V14.7027H2.28571V5.2973Z" fill="black"/>
</svg>
