<svg width="200" height="200" viewBox="0 0 200 200" fill="none" xmlns="http://www.w3.org/2000/svg">
<path d="M117.784 148.391L111.155 133.304C109.952 130.567 110.037 127.436 111.387 124.768L123 101.807L112.379 104.335L59.9013 142.253C56.9858 144.149 53.4688 135.301 54.2786 130.877C57.4023 113.814 80.5177 94.8551 81.1424 87.9034C81.6422 82.342 79.6847 76.3172 78.6435 74L58.2817 84.593C57.3062 85.1005 56.1907 85.2722 55.1077 85.0817L46.7413 83.6098C43.9124 83.1122 41.0001 83.4372 38.3505 84.5462L24.2911 90.4313C23.0416 99.9108 25.1658 124.684 43.6581 150.469C62.1503 176.253 97.1774 177.643 112.379 175.115L118.223 155.234C118.887 152.972 118.732 150.549 117.784 148.391Z" fill="#63372C" fill-opacity="0.24"/>
<path fill-rule="evenodd" clip-rule="evenodd" d="M157.895 141.54C144.962 159.532 123.85 171.25 100 171.25C60.6497 171.25 28.75 139.35 28.75 100C28.75 97.5161 28.8771 95.0618 29.1252 92.6434C30.4741 91.7864 31.9837 90.8809 33.5254 90.0415C36.8034 88.2569 39.7494 87.0407 41.5609 86.8595C45.9426 86.4214 52.5489 87.8177 55.3914 88.6298L56.53 88.9551L57.5982 88.4442L77.3776 78.9845C77.7908 80.0758 78.1449 81.465 78.2955 83.033C78.5649 85.8395 78.1257 88.6644 76.7462 90.8102C75.13 93.3243 72.4505 96.9358 69.3818 101.072L69.3814 101.072L69.3813 101.072L69.3812 101.073C67.1898 104.026 64.7999 107.247 62.457 110.527C59.7066 114.378 57.0633 118.258 55.0574 121.682C54.0546 123.394 53.1814 125.042 52.5293 126.551C51.8968 128.014 51.3806 129.552 51.2608 130.991C50.6564 138.242 54.5032 143.221 56.875 145L58.7072 146.374L60.5693 145.041C77.5244 132.9 112.141 108.206 116.031 105.775C117.272 104.999 118.817 104.765 120.442 104.91C121.784 105.029 122.992 105.392 123.778 105.717L157.895 141.54ZM161.404 136.162L127.888 100.97L127.511 100.574L127.023 100.33C125.657 99.647 123.466 98.9036 120.995 98.6842C118.516 98.464 115.478 98.7508 112.719 100.475C112.315 100.728 111.613 101.196 110.661 101.846L89.3627 72.5608C87.4128 69.8796 83.8272 68.9719 80.8364 70.4023L55.9445 82.3071C52.4531 81.417 45.9298 80.1415 40.939 80.6406C37.7504 80.9594 33.8215 82.7641 30.5369 84.5523C30.496 84.5746 30.4552 84.5969 30.4144 84.6192C37.4461 52.6623 65.9305 28.75 100 28.75C139.35 28.75 171.25 60.6497 171.25 100C171.25 113.2 167.66 125.562 161.404 136.162ZM180 100C180 144.183 144.183 180 100 180C55.8172 180 20 144.183 20 100C20 55.8172 55.8172 20 100 20C144.183 20 180 55.8172 180 100ZM84.3081 76.2369L105.525 105.41C94.1008 113.407 72.4209 128.874 59.1743 138.353C58.1972 136.879 57.236 134.548 57.4892 131.51C57.5256 131.073 57.732 130.267 58.2665 129.03C58.7814 127.839 59.5196 126.43 60.4503 124.841C62.3116 121.664 64.8245 117.966 67.5429 114.16C69.6882 111.157 71.9932 108.047 74.167 105.114C77.3773 100.783 80.3016 96.8374 82.0036 94.1899C84.3742 90.5024 84.8725 86.1397 84.5169 82.4358C84.3084 80.2644 83.7867 78.121 83.0293 76.2815L83.533 76.0406C83.8049 75.9106 84.1308 75.9931 84.3081 76.2369Z" fill="#63372C"/>
</svg>
