<svg width="180" height="60" viewBox="0 0 180 60" fill="none" xmlns="http://www.w3.org/2000/svg">
<path d="M114.051 15.0124H140.004V19.7625H129.708V44.7521H124.56V19.7625H114.051V15.0124Z" fill="black" fill-opacity="0.8"/>
<path d="M71.3674 15.0124V19.7625H50.5641V27.4039H67.2941V32.154H50.5641V40.002H71.3674V44.7521H45.4164V19.7625H45.4143V15.0124H71.3674Z" fill="black" fill-opacity="0.8"/>
<path d="M84.3266 15.0248H77.5898L101.72 44.7645H108.476L96.4096 29.9049L108.457 15.0475L101.72 15.0578L93.0367 25.7511L84.3266 15.0248Z" fill="black" fill-opacity="0.8"/>
<path d="M91.2396 36.268L87.8659 32.1086L77.5705 44.7872H84.3266L91.2396 36.268Z" fill="black" fill-opacity="0.8"/>
<path fill-rule="evenodd" clip-rule="evenodd" d="M45.5968 44.7521L21.4346 15H15V44.7397H20.1477V21.3568L39.1299 44.7521H45.5968Z" fill="black" fill-opacity="0.8"/>
<path d="M141.161 44.5705C140.784 44.5705 140.463 44.441 140.195 44.182C139.926 43.923 139.794 43.6094 139.797 43.2379C139.794 42.8767 139.926 42.5665 140.195 42.3075C140.463 42.0485 140.784 41.9189 141.161 41.9189C141.524 41.9189 141.841 42.0485 142.109 42.3075C142.382 42.5665 142.518 42.8767 142.521 43.2379C142.518 43.4833 142.455 43.7082 142.329 43.9093C142.2 44.1138 142.036 44.274 141.83 44.3899C141.628 44.5092 141.405 44.5705 141.161 44.5705Z" fill="black" fill-opacity="0.8"/>
<path d="M149.947 32.042H152.228V40.7567C152.225 41.5577 152.05 42.2427 151.709 42.8187C151.363 43.3947 150.885 43.8343 150.272 44.1444C149.661 44.4512 148.946 44.608 148.133 44.608C147.39 44.608 146.724 44.475 146.131 44.216C145.538 43.957 145.068 43.5685 144.722 43.0572C144.373 42.546 144.202 41.9087 144.202 41.1453H146.487C146.491 41.4793 146.567 41.7689 146.714 42.0109C146.86 42.2529 147.062 42.4369 147.321 42.5664C147.582 42.696 147.882 42.7607 148.22 42.7607C148.587 42.7607 148.901 42.6857 149.155 42.5324C149.41 42.3824 149.605 42.1575 149.741 41.8575C149.874 41.5611 149.944 41.193 149.947 40.7567V32.042Z" fill="black" fill-opacity="0.8"/>
<path d="M161.614 35.4502C161.559 34.9219 161.314 34.5095 160.889 34.2164C160.46 33.9199 159.905 33.7734 159.225 33.7734C158.747 33.7734 158.336 33.845 157.994 33.9847C157.652 34.1278 157.387 34.3187 157.205 34.5606C157.024 34.8026 156.933 35.0787 156.926 35.3889C156.926 35.6479 156.989 35.8728 157.111 36.0603C157.233 36.2511 157.397 36.4113 157.61 36.5408C157.819 36.6737 158.053 36.7828 158.308 36.8714C158.566 36.96 158.824 37.035 159.082 37.0963L160.271 37.386C160.749 37.4951 161.213 37.6417 161.656 37.8291C162.099 38.0132 162.5 38.2483 162.852 38.5312C163.205 38.8141 163.484 39.1549 163.69 39.5537C163.895 39.9524 164 40.4193 164 40.9578C164 41.6837 163.812 42.3211 163.431 42.8732C163.051 43.4219 162.504 43.8513 161.785 44.1615C161.07 44.4682 160.205 44.625 159.187 44.625C158.203 44.625 157.345 44.4751 156.623 44.1751C155.898 43.8786 155.332 43.4424 154.924 42.8698C154.516 42.2972 154.296 41.5985 154.265 40.7772H156.525C156.557 41.2066 156.696 41.5645 156.933 41.8542C157.174 42.1404 157.488 42.3518 157.872 42.4949C158.259 42.6346 158.691 42.7062 159.169 42.7062C159.668 42.7062 160.107 42.6312 160.488 42.4846C160.864 42.3381 161.161 42.1336 161.374 41.8678C161.59 41.6053 161.698 41.2952 161.701 40.9408C161.698 40.617 161.6 40.3477 161.412 40.1364C161.22 39.9251 160.955 39.7479 160.616 39.6048C160.275 39.4616 159.877 39.3321 159.424 39.2196L157.98 38.8584C156.937 38.5959 156.11 38.1972 155.507 37.6621C154.9 37.127 154.6 36.4181 154.6 35.5286C154.6 34.7993 154.802 34.1585 155.211 33.6098C155.615 33.0611 156.17 32.635 156.871 32.3317C157.575 32.025 158.371 31.875 159.256 31.875C160.156 31.875 160.944 32.025 161.625 32.3317C162.305 32.635 162.839 33.0577 163.225 33.5961C163.613 34.1346 163.815 34.7515 163.826 35.4502H161.614Z" fill="black" fill-opacity="0.8"/>
</svg>
