<svg width="180" height="60" viewBox="0 0 180 60" fill="none" xmlns="http://www.w3.org/2000/svg">
<path d="M131.689 43.7407C131.402 43.7407 131.134 43.6637 130.886 43.5289L128.341 42.0081C127.959 41.7963 128.15 41.7193 128.265 41.6808C128.781 41.5075 128.877 41.469 129.413 41.161C129.47 41.1225 129.547 41.1418 129.604 41.1803L131.555 42.3546C131.632 42.3931 131.728 42.3931 131.785 42.3546L139.419 37.9075C139.495 37.869 139.534 37.792 139.534 37.6958V28.8209C139.534 28.7247 139.495 28.6477 139.419 28.6092L131.785 24.1814C131.708 24.1429 131.613 24.1429 131.555 24.1814L123.922 28.6092C123.845 28.6477 123.807 28.7439 123.807 28.8209V37.6958C123.807 37.7728 123.845 37.869 123.922 37.9075L126.007 39.1204C127.136 39.6979 127.844 39.0241 127.844 38.3503V29.591C127.844 29.4755 127.939 29.36 128.073 29.36H129.049C129.164 29.36 129.279 29.4562 129.279 29.591V38.3503C129.279 39.8712 128.456 40.7567 127.021 40.7567C126.581 40.7567 126.237 40.7567 125.261 40.2755L123.252 39.1204C122.755 38.8316 122.448 38.2926 122.448 37.715V28.8402C122.448 28.2626 122.755 27.7236 123.252 27.4348L130.886 22.9878C131.364 22.7183 132.015 22.7183 132.493 22.9878L140.127 27.4348C140.624 27.7236 140.93 28.2626 140.93 28.8402V37.715C140.93 38.2926 140.624 38.8316 140.127 39.1204L132.493 43.5674C132.263 43.6637 131.976 43.7407 131.689 43.7407Z" fill="black" fill-opacity="0.8"/>
<path d="M134.062 37.6379C130.713 37.6379 130.025 36.0978 130.025 34.7887C130.025 34.6732 130.12 34.5577 130.254 34.5577H131.249C131.364 34.5577 131.46 34.6347 131.46 34.7502C131.613 35.7705 132.053 36.2711 134.081 36.2711C135.688 36.2711 136.377 35.9053 136.377 35.039C136.377 34.5385 136.185 34.1727 133.679 33.9224C131.593 33.7106 130.292 33.2486 130.292 31.5737C130.292 30.0144 131.593 29.0903 133.775 29.0903C136.224 29.0903 137.429 29.9374 137.582 31.7855C137.582 31.8433 137.563 31.901 137.525 31.9588C137.486 31.9973 137.429 32.0358 137.371 32.0358H136.357C136.262 32.0358 136.166 31.9588 136.147 31.8625C135.917 30.8037 135.324 30.4572 133.755 30.4572C131.995 30.4572 131.785 31.0732 131.785 31.5352C131.785 32.0935 132.033 32.2668 134.406 32.5748C136.759 32.8828 137.869 33.3256 137.869 34.9812C137.869 36.6753 136.472 37.6379 134.062 37.6379Z" fill="black" fill-opacity="0.8"/>
<path fill-rule="evenodd" clip-rule="evenodd" d="M52.1565 28.4415C52.1565 28.095 51.9652 27.7678 51.6591 27.5945L43.5661 22.8779C43.4322 22.8009 43.2792 22.7624 43.1261 22.7432C43.107 22.7432 43.0496 22.7432 43.0496 22.7432C42.8965 22.7432 42.7434 22.8009 42.6095 22.8779L34.4974 27.5752C34.1913 27.7485 34 28.0758 34 28.4415L34.0191 41.0704C34.0191 41.2437 34.1148 41.4169 34.2679 41.4939C34.4209 41.5902 34.6122 41.5902 34.7462 41.4939L39.5675 38.7217C39.8736 38.5485 40.0649 38.2212 40.0649 37.8747V31.9645C40.0649 31.618 40.2562 31.2907 40.5624 31.1175L42.6095 29.9239C42.7626 29.8276 42.9348 29.7891 43.107 29.7891C43.2792 29.7891 43.4513 29.8276 43.5853 29.9239L45.6324 31.1175C45.9385 31.2907 46.1299 31.618 46.1299 31.9645V37.8747C46.1299 38.2212 46.3212 38.5485 46.6273 38.7217L51.4104 41.4939C51.5634 41.5902 51.7547 41.5902 51.9078 41.4939C52.0609 41.4169 52.1565 41.2437 52.1565 41.0704V28.4415Z" fill="black" fill-opacity="0.8"/>
<path fill-rule="evenodd" clip-rule="evenodd" d="M91.1482 11.0578C90.9951 10.9807 90.8038 10.9807 90.6698 11.0578C90.5168 11.154 90.4211 11.308 90.4211 11.4813V23.9946C90.4211 24.1101 90.3637 24.2256 90.2489 24.3027C90.1341 24.3604 90.0194 24.3604 89.9046 24.3027L87.8765 23.1283C87.5704 22.9551 87.2069 22.9551 86.9008 23.1283L78.7887 27.8449C78.4826 28.0182 78.2913 28.3454 78.2913 28.6919V38.1058C78.2913 38.4524 78.4826 38.7796 78.7887 38.9529L86.9008 43.6695C87.2069 43.8427 87.5704 43.8427 87.8765 43.6695L95.9886 38.9529C96.2947 38.7796 96.4861 38.4524 96.4861 38.1058V14.6385C96.4861 14.2727 96.2947 13.9455 95.9886 13.7722L91.1482 11.0578ZM90.402 35.0064C90.402 35.1026 90.3637 35.1796 90.2872 35.2181L87.513 36.8353C87.4365 36.8738 87.3408 36.8738 87.2643 36.8353L84.4901 35.2181C84.4136 35.1796 84.3753 35.0834 84.3753 35.0064V31.7722C84.3753 31.6759 84.4136 31.5989 84.4901 31.5604L87.2643 29.9433C87.3408 29.9048 87.4365 29.9048 87.513 29.9433L90.2872 31.5604C90.3637 31.5989 90.402 31.6952 90.402 31.7722V35.0064Z" fill="black" fill-opacity="0.8"/>
<path fill-rule="evenodd" clip-rule="evenodd" d="M118.143 31.6951C118.449 31.5218 118.621 31.1946 118.621 30.848V28.5571C118.621 28.2106 118.43 27.8833 118.143 27.7101L110.088 23.0128C109.782 22.8395 109.419 22.8395 109.113 23.0128L101.001 27.7293C100.695 27.9026 100.503 28.2299 100.503 28.5764V37.9903C100.503 38.3368 100.695 38.6641 101.001 38.8373L109.055 43.4576C109.361 43.6309 109.725 43.6309 110.012 43.4576L114.891 40.724C115.044 40.647 115.139 40.4737 115.139 40.3004C115.139 40.1272 115.044 39.9539 114.891 39.8769L106.74 35.1603C106.587 35.0641 106.492 34.9101 106.492 34.7368V31.7914C106.492 31.6181 106.587 31.4448 106.74 31.3678L109.285 29.9047C109.438 29.8085 109.629 29.8085 109.782 29.9047L112.327 31.3678C112.48 31.4641 112.576 31.6181 112.576 31.7914V34.1015C112.576 34.2748 112.671 34.448 112.824 34.525C112.977 34.6213 113.169 34.6213 113.322 34.525L118.143 31.6951Z" fill="black" fill-opacity="0.8"/>
<path d="M65.7207 23.0513C65.4145 22.8781 65.051 22.8781 64.7449 23.0513L56.6902 27.7294C56.3841 27.9027 56.2119 28.2299 56.2119 28.5765V37.9518C56.2119 38.2984 56.4032 38.6256 56.6902 38.7989L64.7449 43.477C65.051 43.6502 65.4145 43.6502 65.7207 43.477L73.7753 38.7989C74.0815 38.6256 74.2536 38.2984 74.2536 37.9518V28.5765C74.2536 28.2299 74.0623 27.9027 73.7753 27.7294L65.7207 23.0513Z" fill="black" fill-opacity="0.8"/>
</svg>
