<svg width="32" height="32" viewBox="0 0 24 24" fill="none" xmlns="http://www.w3.org/2000/svg">
<path fill-rule="evenodd" clip-rule="evenodd" d="M21 19.3927C21 20.2797 20.2797 21 19.3928 21C18.5057 21 17.7854 20.2797 17.7854 19.3927C17.7854 12.1158 11.8837 6.21431 4.60708 6.21431C3.72008 6.21431 3 5.49422 3 4.60723C3 3.72009 3.72008 3 4.60708 3C9.37701 3 13.292 4.64579 16.3648 7.71844C19.5147 10.8687 21 14.7774 21 19.3927ZM15.2142 19.3927C15.2142 20.2797 14.4943 21 13.607 21C12.72 21 12 20.2797 12 19.3927C12 15.3109 8.68898 12 4.60715 12C3.72015 12 3.00007 11.2799 3.00007 10.3929C3.00007 9.50567 3.72015 8.7858 4.60715 8.7858C10.4632 8.7858 15.2142 13.537 15.2142 19.3927ZM3.00007 18.1072C3.00007 16.5061 4.29207 15.2141 5.89292 15.2141C7.49377 15.2141 8.7857 16.5061 8.7857 18.1072C8.7857 19.7079 7.49384 21 5.89292 21C4.292 21 3.00007 19.708 3.00007 18.1072Z" fill="black"/>
</svg>
