<svg width="20" height="20" viewBox="0 0 20 20" fill="none" xmlns="http://www.w3.org/2000/svg">
<path d="M11.1059 3.10588C11.1059 3.71664 10.6108 4.21176 10 4.21176C9.38925 4.21176 8.89412 3.71664 8.89412 3.10588C8.89412 2.49512 9.38925 2 10 2C10.6108 2 11.1059 2.49512 11.1059 3.10588Z" fill="black"/>
<path d="M12.2597 2.89681C12.3772 2.60615 12.7081 2.46579 12.9988 2.58331C14.5011 3.19073 15.7835 4.24004 16.6763 5.59235C17.5691 6.94465 18.0301 8.5362 17.9985 10.1563C17.9668 11.7764 17.4439 13.3488 16.499 14.6651C15.554 15.9815 14.2316 16.9799 12.7067 17.5282C11.1819 18.0764 9.52644 18.1487 7.9596 17.7354C6.39276 17.3221 4.98836 16.4428 3.9323 15.2137C2.87624 13.9847 2.2183 12.4639 2.04558 10.8527C1.87286 9.24152 2.19349 7.61585 2.96505 6.19089C3.11433 5.91518 3.45885 5.8127 3.73455 5.96198C4.01026 6.11126 4.11275 6.45578 3.96346 6.73149C3.30141 7.95421 3.02628 9.34916 3.17449 10.7317C3.3227 12.1142 3.88726 13.4192 4.79344 14.4738C5.69963 15.5284 6.90471 16.283 8.24918 16.6376C9.59365 16.9922 11.0141 16.9302 12.3226 16.4598C13.631 15.9893 14.7658 15.1326 15.5766 14.0031C16.3874 12.8735 16.8361 11.5243 16.8633 10.1341C16.8905 8.74394 16.4948 7.37828 15.7288 6.21789C14.9627 5.05751 13.8623 4.15712 12.5732 3.63591C12.2825 3.51838 12.1422 3.18748 12.2597 2.89681Z" fill="black"/>
<path d="M9.52345 10.927L5.04696 5.00517L10.9437 9.45558C11.2124 9.6426 11.3882 9.9537 11.3882 10.3059C11.3882 10.8777 10.9247 11.3412 10.3529 11.3412C10.0139 11.3412 9.71294 11.1782 9.5241 10.9263L9.52345 10.927Z" fill="black"/>
</svg>
