<svg width="180" height="60" viewBox="0 0 180 60" fill="none" xmlns="http://www.w3.org/2000/svg">
<path fill-rule="evenodd" clip-rule="evenodd" d="M150.649 21.6739C151.188 22.2143 151.824 22.4845 152.557 22.4845C153.313 22.4845 153.961 22.2143 154.499 21.6739C155.038 21.1335 155.307 20.4954 155.307 19.7595C155.307 19.0236 155.038 18.3797 154.499 17.8278C153.961 17.2759 153.313 17 152.557 17C151.824 17 151.188 17.2759 150.649 17.8278C150.111 18.3797 149.841 19.0236 149.841 19.7595C149.841 20.4954 150.111 21.1335 150.649 21.6739ZM92.6538 28.7297C92.6538 28.7862 92.608 28.832 92.5515 28.832H88.7692V36.0066C88.7692 36.6045 88.9182 37.0415 89.2161 37.3174C89.514 37.5934 89.9495 37.7486 90.5224 37.7831C91.0466 37.8146 91.6858 37.8125 92.4402 37.7767L92.5461 37.7714C92.6047 37.7684 92.6538 37.815 92.6538 37.8736V41.7101C92.6538 41.7622 92.6146 41.806 92.5628 41.8117L92.4935 41.8192C89.5303 42.1362 87.4351 41.8429 86.2081 40.9393C84.9591 40.0194 84.3346 38.3752 84.3346 36.0066V28.832H81.4461C81.3896 28.832 81.3438 28.7862 81.3438 28.7297V24.657C81.3438 24.6005 81.3896 24.5547 81.4461 24.5547H84.3346V21.706C84.3346 21.625 84.3824 21.5516 84.4565 21.5188L88.6256 19.6777C88.6932 19.6478 88.7692 19.6973 88.7692 19.7713V24.5547H92.5515C92.608 24.5547 92.6538 24.6005 92.6538 24.657V28.7297ZM100.695 27.5204C101.108 26.4166 101.79 25.5887 102.741 25.0368C103.611 24.5318 104.573 24.2578 105.625 24.2149C105.676 24.2129 105.754 24.2113 105.817 24.2104C105.874 24.2095 105.921 24.2554 105.921 24.3123V28.9929C105.921 29.0906 105.836 29.1658 105.738 29.157C104.46 29.0409 103.311 29.3232 102.294 30.0039C101.228 30.7168 100.695 31.9011 100.695 33.5568V41.6985C100.695 41.755 100.65 41.8008 100.593 41.8008H96.363C96.3065 41.8008 96.2607 41.755 96.2607 41.6985V24.6562C96.2607 24.5997 96.3065 24.5539 96.363 24.5539H100.593C100.65 24.5539 100.695 24.5997 100.695 24.6562V27.5204ZM121.664 24.5542C121.607 24.5542 121.562 24.6 121.562 24.6565V26.5893C120.232 24.9106 118.364 24.0713 115.958 24.0713C113.666 24.0713 111.701 24.9509 110.062 26.7101C108.424 28.4692 107.604 30.6251 107.604 33.1776C107.604 35.7302 108.424 37.886 110.062 39.6452C111.701 41.4044 113.666 42.284 115.958 42.284C118.364 42.284 120.232 41.4446 121.562 39.7659V41.6988C121.562 41.7553 121.607 41.8011 121.664 41.8011H125.894C125.95 41.8011 125.996 41.7553 125.996 41.6988V24.6565C125.996 24.6 125.95 24.5542 125.894 24.5542H121.664ZM113.379 36.6964C114.273 37.5933 115.407 38.0417 116.783 38.0417C118.158 38.0417 119.298 37.5875 120.203 36.6792C121.108 35.7708 121.561 34.6038 121.561 33.1781C121.561 31.7523 121.108 30.5853 120.203 29.677C119.298 28.7686 118.158 28.3145 116.783 28.3145C115.407 28.3145 114.273 28.7686 113.379 29.677C112.485 30.5853 112.039 31.7523 112.039 33.1781C112.039 34.6038 112.485 35.7766 113.379 36.6964ZM145.257 26.7101C143.618 24.9509 141.642 24.0713 139.327 24.0713C136.921 24.0713 135.064 24.9106 133.758 26.5893V24.6565C133.758 24.6 133.712 24.5542 133.656 24.5542H129.426C129.369 24.5542 129.323 24.6 129.323 24.6565V48.5975C129.323 48.654 129.369 48.6998 129.426 48.6998H133.656C133.712 48.6998 133.758 48.654 133.758 48.5975V39.7659C135.064 41.4446 136.921 42.284 139.327 42.284C141.642 42.284 143.618 41.4044 145.257 39.6452C146.896 37.886 147.715 35.7302 147.715 33.1776C147.715 30.6251 146.896 28.4692 145.257 26.7101ZM135.099 36.6964C135.992 37.5933 137.127 38.0417 138.502 38.0417C139.877 38.0417 141.017 37.5875 141.922 36.6792C142.828 35.7708 143.28 34.6038 143.28 33.1781C143.28 31.7523 142.828 30.5853 141.922 29.677C141.017 28.7686 139.877 28.3145 138.502 28.3145C137.127 28.3145 135.992 28.7686 135.099 29.677C134.205 30.5853 133.758 31.7523 133.758 33.1781C133.758 34.6038 134.205 35.7766 135.099 36.6964ZM150.459 41.8015C150.403 41.8015 150.357 41.7557 150.357 41.6992V24.657C150.357 24.6005 150.403 24.5547 150.459 24.5547H154.689C154.746 24.5547 154.792 24.6005 154.792 24.657V41.6992C154.792 41.7557 154.746 41.8015 154.689 41.8015H150.459ZM71.2991 30.5734C70.6918 30.2859 70.3881 29.9122 70.3881 29.4523C70.3881 29.0154 70.5772 28.6705 70.9553 28.4175C71.3335 28.1645 71.809 28.0381 72.382 28.0381C73.4806 28.0381 74.3106 28.4678 74.8718 29.3272C74.911 29.3872 74.9871 29.4115 75.0526 29.3824L78.7941 27.7215C78.8498 27.6968 78.8717 27.6292 78.8407 27.5767C78.7995 27.507 78.7452 27.416 78.7091 27.3591C78.0677 26.3476 77.2382 25.594 76.1978 25.0199C75.0519 24.3875 73.78 24.0713 72.382 24.0713C70.5256 24.0713 68.9729 24.5599 67.7239 25.5373C66.4749 26.5146 65.8503 27.8541 65.8503 29.5558C65.8503 30.6826 66.154 31.6197 66.7613 32.367C67.3687 33.1144 68.1078 33.6605 68.9787 34.0055C69.8495 34.3504 70.7204 34.6379 71.5913 34.8678C72.4622 35.0978 73.2013 35.3565 73.8086 35.6439C74.416 35.9314 74.7196 36.3051 74.7196 36.765C74.7196 37.7538 73.929 38.2482 72.3476 38.2482C70.8423 38.2482 69.7992 37.69 69.2183 36.5737C69.1684 36.4778 69.0542 36.4339 68.9554 36.4778L65.2244 38.1366C65.1718 38.1599 65.1488 38.2221 65.1738 38.2739C65.1889 38.3052 65.2048 38.3379 65.2165 38.3613C66.5203 40.9764 68.8974 42.284 72.3476 42.284C74.3186 42.284 75.9629 41.8068 77.2807 40.8525C78.5985 39.8982 79.2574 38.5357 79.2574 36.765C79.2574 35.5922 78.9537 34.6149 78.3464 33.833C77.7391 33.0512 77 32.4935 76.1291 32.1601C75.2582 31.8266 74.3873 31.5507 73.5164 31.3322C72.6455 31.1138 71.9064 30.8608 71.2991 30.5734Z" fill="black" fill-opacity="0.8"/>
<path d="M50.0466 17.2998H29.6531C26.531 17.2998 24 19.8308 24 22.9529V43.3464C24 46.4685 26.531 48.9995 29.6531 48.9995H50.0466C53.1687 48.9995 55.6997 46.4685 55.6997 43.3464V22.9529C55.6997 19.8308 53.1687 17.2998 50.0466 17.2998Z" fill="black" fill-opacity="0.8"/>
<path fill-rule="evenodd" clip-rule="evenodd" d="M45.9792 26.8623H35.1619V32.2656H40.576C40.6632 32.2656 40.734 32.3364 40.734 32.4236V37.8374H46.1372V27.0203C46.1372 26.9331 46.0665 26.8623 45.9792 26.8623Z" fill="white"/>
<path opacity="0.42" fill-rule="evenodd" clip-rule="evenodd" d="M35.1629 26.8622V32.2653H29.9504C29.88 32.2653 29.8447 32.1802 29.8945 32.1304L35.1629 26.8622Z" fill="white"/>
<path opacity="0.42" fill-rule="evenodd" clip-rule="evenodd" d="M40.8694 43.1055C40.8197 43.1553 40.7346 43.12 40.7346 43.0496V37.8372H46.1378L40.8694 43.1055Z" fill="white"/>
<path opacity="0.42" d="M35.1642 32.2655H40.6573C40.7009 32.2655 40.7363 32.3009 40.7363 32.3445V37.8375H35.3222C35.2349 37.8375 35.1642 37.7667 35.1642 37.6794V32.2655Z" fill="white"/>
</svg>
