<svg width="180" height="60" viewBox="0 0 180 60" fill="none" xmlns="http://www.w3.org/2000/svg">
<path fill-rule="evenodd" clip-rule="evenodd" d="M24.0799 19C19.525 19 16.6789 21.291 15.5396 25.8731C17.2478 23.5821 19.2405 22.7231 21.5176 23.2955C22.8169 23.622 23.7459 24.5704 24.7734 25.6204C26.4481 27.3302 28.3866 29.309 32.6196 29.309C37.1738 29.309 40.0206 27.0179 41.1592 22.4365C39.4517 24.7276 37.459 25.5865 35.1818 25.0135C33.882 24.6869 32.9529 23.7385 31.9254 22.6892C30.2507 20.9781 28.3129 19 24.0799 19ZM15.5396 29.309C10.9853 29.309 8.13857 31.6 7 36.1821C8.70819 33.891 10.7009 33.0321 12.9773 33.6045C14.2772 33.931 15.2063 34.8794 16.2338 35.9294C17.9085 37.6392 19.8463 39.6179 24.0799 39.6179C28.6342 39.6179 31.481 37.3276 32.6196 32.7455C30.9114 35.0365 28.9187 35.8955 26.6415 35.3231C25.3423 34.9959 24.4133 34.0475 23.3858 32.9982C21.7111 31.2884 19.7726 29.309 15.5396 29.309Z" fill="black" fill-opacity="0.8"/>
<path fill-rule="evenodd" clip-rule="evenodd" d="M58.2364 27.6879H55.2558V33.4914C55.2558 35.0393 56.2652 35.0149 58.2364 34.918V37.2639C54.2457 37.7476 52.6594 36.6353 52.6594 33.4914V27.6879H50.4478V25.1726H52.6594V21.9251L55.2558 21.1508V25.1726H58.2364V27.6879ZM69.5981 25.1726H72.1938V37.2639H69.5981V35.5229C68.6844 36.8039 67.266 37.5782 65.3912 37.5782C62.122 37.5782 59.4058 34.7974 59.4058 31.2179C59.4058 27.6154 62.122 24.8583 65.3912 24.8583C67.266 24.8583 68.6844 25.6319 69.5981 26.8899V25.1726ZM65.8001 35.0874C67.9635 35.0874 69.5981 33.467 69.5981 31.2179C69.5981 28.9689 67.9635 27.3492 65.8001 27.3492C63.6368 27.3492 62.0022 28.9696 62.0022 31.2179C62.0022 33.467 63.6368 35.0874 65.8001 35.0874ZM76.5205 23.3592C75.6075 23.3592 74.8625 22.5856 74.8625 21.6907C74.8647 21.2472 75.0403 20.8227 75.3511 20.5099C75.6618 20.1972 76.0823 20.0219 76.5205 20.0222C76.9589 20.0217 77.3795 20.197 77.6904 20.5097C78.0013 20.8224 78.1771 21.2471 78.1792 21.6907C78.1792 22.5849 77.4342 23.3592 76.5205 23.3592ZM75.2227 37.2639V25.1726H77.8191V37.2639H75.2227ZM80.8238 37.2639V19.6097H83.4196V37.2632H80.8238V37.2639ZM100.271 25.1726H103.011L99.2371 37.2639H96.6889L94.1888 29.1146L91.6647 37.2639H89.1171L85.3426 25.1726H88.083L90.415 33.5151L92.9391 25.1726H95.4151L97.9145 33.5151L100.271 25.1726ZM106.232 23.3592C105.318 23.3592 104.573 22.5856 104.573 21.6907C104.575 21.2471 104.751 20.8224 105.062 20.5097C105.373 20.197 105.794 20.0217 106.232 20.0222C106.67 20.0217 107.091 20.197 107.402 20.5097C107.713 20.8224 107.888 21.2471 107.891 21.6907C107.891 22.5849 107.146 23.3592 106.232 23.3592ZM104.934 37.2639V25.1726H107.53V37.2639H104.934ZM116.857 24.8583C119.549 24.8583 121.472 26.6962 121.472 29.8401V37.2632H118.876V30.1056C118.876 28.2678 117.818 27.3011 116.184 27.3011C114.477 27.3011 113.131 28.3166 113.131 30.783V37.2639H110.534V25.1726H113.131V26.7206C113.924 25.4633 115.222 24.8583 116.857 24.8583ZM133.779 20.3366H136.376V37.2632H133.779V35.5223C132.866 36.8039 131.448 37.5776 129.573 37.5776C126.304 37.5776 123.588 34.7967 123.588 31.2173C123.588 27.6147 126.304 24.8576 129.573 24.8576C131.448 24.8576 132.866 25.6313 133.779 26.8892V20.3366ZM129.981 35.0874C132.145 35.0874 133.779 33.467 133.779 31.2179C133.779 28.9689 132.145 27.3492 129.981 27.3492C127.818 27.3492 126.183 28.9696 126.183 31.2179C126.183 33.467 127.818 35.0874 129.981 35.0874ZM145.077 37.5782C141.447 37.5782 138.731 34.7974 138.731 31.2179C138.731 27.6154 141.447 24.8583 145.077 24.8583C147.433 24.8583 149.476 26.0912 150.437 27.9778L148.202 29.2839C147.673 28.1472 146.496 27.4217 145.053 27.4217C142.938 27.4217 141.327 29.0421 141.327 31.2179C141.327 33.3945 142.938 35.0149 145.053 35.0149C146.496 35.0149 147.673 34.265 148.25 33.1526L150.486 34.4343C149.476 36.3446 147.433 37.5782 145.077 37.5782ZM154.764 28.5096C154.764 30.7106 161.231 29.3801 161.231 33.8545C161.231 36.2728 159.139 37.5782 156.543 37.5782C154.14 37.5782 152.409 36.4896 151.64 34.7486L153.875 33.4433C154.259 34.5312 155.221 35.1842 156.543 35.1842C157.697 35.1842 158.586 34.7974 158.586 33.8294C158.586 31.6779 152.12 32.8871 152.12 28.5584C152.12 26.285 154.067 24.8583 156.519 24.8583C158.49 24.8583 160.125 25.7776 160.966 27.3736L158.779 28.6065C158.346 27.6635 157.504 27.2279 156.519 27.2279C155.581 27.2279 154.764 27.6391 154.764 28.5096ZM165.846 28.5096C165.846 30.7106 172.312 29.3801 172.312 33.8545C172.312 36.2728 170.221 37.5782 167.624 37.5782C165.221 37.5782 163.49 36.4896 162.721 34.7486L164.956 33.4433C165.341 34.5312 166.302 35.1842 167.624 35.1842C168.778 35.1842 169.668 34.7974 169.668 33.8294C169.668 31.6779 163.202 32.8871 163.202 28.5584C163.202 26.285 165.148 24.8583 167.601 24.8583C169.572 24.8583 171.206 25.7776 172.048 27.3736L169.86 28.6065C169.428 27.6635 168.586 27.2279 167.601 27.2279C166.663 27.2279 165.846 27.6391 165.846 28.5096Z" fill="black" fill-opacity="0.8"/>
</svg>
