<svg width="32" height="32" viewBox="0 0 24 24" fill="none" xmlns="http://www.w3.org/2000/svg">
<path d="M22.5129 5.04217C21.8464 5.32926 21.1457 5.52918 20.4281 5.63698C20.7636 5.57942 21.2572 4.97501 21.4537 4.73037C21.7522 4.36136 21.9798 3.94009 22.1247 3.48799C22.1247 3.45441 22.1582 3.40644 22.1247 3.38245C22.1078 3.37322 22.0888 3.36838 22.0696 3.36838C22.0503 3.36838 22.0314 3.37322 22.0145 3.38245C21.2353 3.80478 20.406 4.12711 19.5463 4.34183C19.5163 4.35099 19.4844 4.35181 19.454 4.34421C19.4236 4.3366 19.3959 4.32085 19.3737 4.29866C19.3068 4.2189 19.2348 4.14359 19.1581 4.0732C18.8074 3.75874 18.4096 3.50137 17.9791 3.3105C17.398 3.07189 16.7704 2.96856 16.1435 3.0083C15.5353 3.04675 14.9415 3.21003 14.399 3.48799C13.8648 3.78104 13.3953 4.17916 13.0188 4.65842C12.6226 5.15171 12.3367 5.72417 12.18 6.33732C12.0509 6.92055 12.0363 7.52334 12.1369 8.11216C12.1369 8.21289 12.1369 8.22728 12.0506 8.21289C8.63352 7.70922 5.82985 6.49562 3.53899 3.89092C3.43834 3.7758 3.38562 3.7758 3.30415 3.89092C2.30729 5.40673 2.79134 7.80516 4.03742 8.98999C4.20516 9.14828 4.37769 9.30178 4.55981 9.44569C3.98849 9.40509 3.43113 9.25013 2.92074 8.98999C2.82489 8.92763 2.77217 8.9612 2.76738 9.07633C2.75379 9.23593 2.75379 9.39641 2.76738 9.55601C2.86738 10.3209 3.16856 11.0455 3.64011 11.6557C4.11167 12.2659 4.73668 12.7398 5.45124 13.0289C5.62543 13.1036 5.80693 13.1599 5.9928 13.1968C5.4639 13.3011 4.92145 13.3173 4.38728 13.2448C4.27226 13.2208 4.22912 13.2832 4.27226 13.3935C4.97677 15.3122 6.50561 15.8975 7.62708 16.2237C7.78044 16.2476 7.9338 16.2476 8.10634 16.286C8.10634 16.286 8.10634 16.286 8.07758 16.3148C7.74689 16.9192 6.40976 17.3269 5.7963 17.538C4.67659 17.9405 3.48278 18.0944 2.2977 17.9889C2.11079 17.9601 2.06766 17.9649 2.01973 17.9889C1.97181 18.0129 2.01973 18.0656 2.07245 18.1136C2.31208 18.2719 2.55171 18.411 2.80093 18.5453C3.54284 18.9504 4.3272 19.2721 5.13972 19.5047C9.34762 20.6655 14.0827 19.8117 17.241 16.6698C19.7236 14.2042 20.5959 10.8032 20.5959 7.39743C20.5959 7.26791 20.754 7.19116 20.8451 7.12401C21.4731 6.6342 22.0269 6.05574 22.4889 5.40673C22.569 5.30999 22.61 5.18681 22.604 5.06136V5.06136C22.604 4.9894 22.604 5.00379 22.5129 5.04217Z" fill="black"/>
</svg>
