<svg width="90" height="36" viewBox="0 0 90 36" fill="none" xmlns="http://www.w3.org/2000/svg">
<path d="M31.2446 12.2613C30.9804 11.2728 30.202 10.4944 29.2135 10.2302C27.4216 9.75 20.2373 9.75 20.2373 9.75C20.2373 9.75 13.053 9.75 11.2611 10.2302C10.2728 10.4944 9.49418 11.2728 9.22998 12.2613C8.75 14.053 8.75 17.7912 8.75 17.7912C8.75 17.7912 8.75 21.5295 9.22998 23.321C9.49418 24.3095 10.2728 25.0881 11.2611 25.3523C13.053 25.8322 20.2373 25.8322 20.2373 25.8322C20.2373 25.8322 27.4216 25.8322 29.2135 25.3523C30.202 25.0881 30.9804 24.3095 31.2446 23.321C31.7248 21.5295 31.7248 17.7912 31.7248 17.7912C31.7248 17.7912 31.7248 14.053 31.2446 12.2613Z" fill="#ED1F24"/>
<path d="M17.9395 21.2382L23.9083 17.792L17.9395 14.3457V21.2382Z" fill="white"/>
<path d="M44.6446 22.8027C44.7704 22.4744 44.8335 21.9377 44.8335 21.1927V18.0545C44.8335 17.3317 44.7704 16.8033 44.6446 16.4692C44.5186 16.1352 44.2968 15.968 43.9793 15.968C43.6726 15.968 43.456 16.1352 43.3302 16.4692C43.2043 16.8033 43.1413 17.3317 43.1413 18.0545V21.1927C43.1413 21.9377 43.2015 22.4744 43.3221 22.8027C43.4424 23.1314 43.6614 23.2955 43.9793 23.2955C44.2968 23.2955 44.5186 23.1314 44.6446 22.8027ZM42.0981 24.3801C41.6433 24.0737 41.3202 23.597 41.1288 22.9505C40.937 22.3045 40.8413 21.4446 40.8413 20.3712V18.909C40.8413 17.8246 40.9506 16.9537 41.1698 16.2967C41.3888 15.6395 41.7309 15.1603 42.1967 14.859C42.6621 14.558 43.2727 14.4072 44.0287 14.4072C44.7734 14.4072 45.3702 14.5606 45.8194 14.8674C46.2683 15.1739 46.597 15.6533 46.8053 16.3048C47.0131 16.9567 47.1173 17.8246 47.1173 18.909V20.3712C47.1173 21.4446 47.0159 22.3073 46.8134 22.9589C46.6107 23.6108 46.282 24.0871 45.8275 24.3882C45.3729 24.6895 44.757 24.84 43.9793 24.84C43.1795 24.84 42.5524 24.6866 42.0981 24.3801Z" fill="#272727"/>
<path d="M77.281 16.1566C77.1662 16.2992 77.0892 16.5318 77.051 16.8548C77.0124 17.178 76.9937 17.6682 76.9937 18.3254V19.0484H78.6528V18.3254C78.6528 17.6792 78.6309 17.189 78.5872 16.8548C78.5433 16.5208 78.4641 16.2856 78.3491 16.1484C78.2339 16.0116 78.056 15.9431 77.8151 15.9431C77.5739 15.9431 77.3959 16.0144 77.281 16.1566ZM76.9937 20.3956V20.9049C76.9937 21.5513 77.0124 22.0358 77.051 22.3589C77.0892 22.682 77.1685 22.9177 77.2893 23.0656C77.4098 23.2133 77.5957 23.2874 77.848 23.2874C78.1872 23.2874 78.4202 23.1558 78.5462 22.8929C78.6719 22.6301 78.7404 22.1921 78.7514 21.5786L80.7066 21.6935C80.7176 21.7815 80.7231 21.9018 80.7231 22.055C80.7231 22.9861 80.4685 23.6817 79.959 24.1417C79.45 24.6016 78.7294 24.8317 77.7986 24.8317C76.6815 24.8317 75.8981 24.4813 75.4492 23.7801C74.9999 23.0794 74.7754 21.995 74.7754 20.5271V18.7689C74.7754 17.2575 75.0082 16.1541 75.4738 15.4584C75.9392 14.7628 76.7361 14.415 77.8644 14.415C78.6418 14.415 79.2389 14.5574 79.6551 14.8422C80.0712 15.1272 80.3643 15.5707 80.5342 16.173C80.704 16.7756 80.7889 17.6081 80.7889 18.6703V20.3956H76.9937Z" fill="#272727"/>
<path d="M36.5771 20.2063L33.9976 10.8906H36.2484L37.152 15.113C37.3822 16.1539 37.5518 17.0411 37.6613 17.7746H37.7271C37.8037 17.2489 37.9735 16.3674 38.2364 15.1295L39.1729 10.8906H41.4238L38.8115 20.2063V24.6755H36.5771V20.2063Z" fill="#272727"/>
<path d="M54.4377 14.6055V24.6769H52.6633L52.466 23.4448H52.4168C51.9348 24.3758 51.2118 24.8412 50.2481 24.8412C49.5799 24.8412 49.0871 24.6222 48.7694 24.184C48.4516 23.746 48.293 23.0612 48.293 22.1304V14.6055H50.5603V21.9987C50.5603 22.4481 50.6097 22.7685 50.7082 22.9599C50.8067 23.1518 50.971 23.2475 51.201 23.2475C51.3983 23.2475 51.5872 23.1874 51.7678 23.0667C51.9486 22.9463 52.0827 22.7931 52.1704 22.6068V14.6055H54.4377Z" fill="#272727"/>
<path d="M66.0676 14.6055V24.6769H64.2932L64.0959 23.4448H64.0469C63.5645 24.3758 62.8417 24.8412 61.8779 24.8412C61.2098 24.8412 60.717 24.6222 60.3992 24.184C60.0815 23.746 59.9229 23.0612 59.9229 22.1304V14.6055H62.1902V21.9987C62.1902 22.4481 62.2394 22.7685 62.3379 22.9599C62.4366 23.1518 62.601 23.2475 62.8309 23.2475C63.0281 23.2475 63.2171 23.1874 63.3977 23.0667C63.5785 22.9463 63.7126 22.7931 63.8003 22.6068V14.6055H66.0676Z" fill="#272727"/>
<path d="M60.5986 12.7145H58.3477V24.6753H56.1298V12.7145H53.8789V10.8906H60.5986V12.7145Z" fill="#272727"/>
<path d="M71.4938 20.3225C71.4938 21.0565 71.4633 21.6316 71.4032 22.0476C71.3431 22.4641 71.2417 22.7598 71.0993 22.9348C70.9569 23.1101 70.7649 23.1976 70.5244 23.1976C70.3379 23.1976 70.1654 23.1539 70.0068 23.0662C69.8477 22.9786 69.7193 22.8472 69.6206 22.6719V16.9544C69.6972 16.6807 69.8286 16.456 70.0149 16.2807C70.2012 16.1058 70.4035 16.0178 70.6227 16.0178C70.8528 16.0178 71.0306 16.1082 71.1568 16.2888C71.2825 16.4697 71.3703 16.7736 71.4196 17.201C71.469 17.628 71.4938 18.2358 71.4938 19.0244V20.3225ZM73.572 16.2144C73.4349 15.5793 73.2131 15.1191 72.9065 14.8342C72.5997 14.5495 72.178 14.4071 71.6415 14.4071C71.2253 14.4071 70.8364 14.525 70.475 14.7604C70.1136 14.9959 69.8341 15.3053 69.637 15.6886H69.6204L69.6206 10.3818H67.4355V24.6756H69.3083L69.5385 23.7228H69.5877C69.7628 24.0623 70.0257 24.3307 70.3763 24.5279C70.7267 24.7249 71.1157 24.8237 71.543 24.8237C72.3094 24.8237 72.8736 24.4702 73.2352 23.7639C73.5965 23.0573 73.7774 21.954 73.7774 20.4532V18.8597C73.7774 17.7316 73.7087 16.8498 73.572 16.2144Z" fill="#272727"/>
</svg>
