<svg width="68" height="36" viewBox="0 0 68 36" fill="none" xmlns="http://www.w3.org/2000/svg">
<path d="M51.1037 25.0591C50.9227 25.0591 50.7682 25.0731 50.6167 25.0562C50.3095 25.0219 50.0024 25.0287 49.6947 25.0197C49.4963 25.0146 49.5021 25.0146 49.4853 24.8279C49.4362 24.2583 49.3824 23.6892 49.3297 23.1201C49.284 22.6202 49.2407 22.1197 49.1903 21.6204C49.1446 21.1626 49.0897 20.706 49.04 20.2488C48.9925 19.8192 48.9486 19.389 48.8994 18.96C48.837 18.4199 48.7726 17.88 48.7062 17.3404C48.6466 16.8636 48.5876 16.3856 48.5217 15.9093C48.4184 15.1708 48.3127 14.4326 48.2047 13.6948C48.0891 12.9086 47.9502 12.1264 47.8051 11.3454C47.779 11.2053 47.7825 11.2003 47.9202 11.1778C48.4928 11.0827 49.0683 11.0018 49.6507 11.0141C49.7138 11.0158 49.7774 11.0169 49.8399 11.0248C49.9423 11.0372 49.9955 11.0856 50.0013 11.2014C50.0215 11.6052 50.0504 12.0089 50.0811 12.4121C50.1302 13.0729 50.1835 13.7336 50.2344 14.3938C50.2667 14.8189 50.2945 15.2429 50.3275 15.6669C50.3801 16.3485 50.4356 17.0295 50.4888 17.711C50.5212 18.1277 50.5496 18.5455 50.5826 18.9622C50.6329 19.574 50.6878 20.1853 50.7387 20.7965C50.7711 21.1857 50.8 21.5754 50.8342 21.9645C50.8845 22.5409 50.9389 23.1173 50.9903 23.6937C51.0291 24.1436 51.0644 24.5946 51.1037 25.0591ZM28.9347 11.0203C29.0185 11.0203 29.1452 11.0113 29.2701 11.0226C29.4292 11.0366 29.4598 11.0766 29.4697 11.2318C29.5154 11.9414 29.5582 12.6517 29.6068 13.3619C29.66 14.1278 29.7184 14.8926 29.7768 15.6574C29.8306 16.3597 29.8844 17.0621 29.9422 17.7644C30.0053 18.536 30.0753 19.3064 30.1389 20.0779C30.1869 20.6689 30.228 21.2599 30.2777 21.8515C30.3251 22.4003 30.3807 22.948 30.4316 23.4963C30.4749 23.9681 30.5189 24.4405 30.5611 24.9128C30.5744 25.0624 30.5634 25.072 30.3974 25.0681C29.9631 25.0579 29.531 25.0084 29.0966 25.0203C28.9971 25.0231 28.9682 24.9786 28.9514 24.887C28.9156 24.6874 28.9213 24.4843 28.8994 24.2825C28.8398 23.7488 28.8057 23.2129 28.7553 22.6781C28.7102 22.1923 28.6559 21.7075 28.6044 21.2222C28.5587 20.7786 28.5136 20.3349 28.465 19.8906C28.4164 19.4548 28.3649 19.0184 28.314 18.5821C28.2672 18.1806 28.2215 17.779 28.1717 17.3775C28.0983 16.7893 28.0254 16.2011 27.9456 15.6141C27.8721 15.0753 27.7888 14.5383 27.7108 14.0001C27.6043 13.2691 27.4846 12.5398 27.3521 11.8132C27.3219 11.6487 27.2899 11.4845 27.2561 11.3206C27.2388 11.2379 27.2544 11.1901 27.3516 11.1772C27.6072 11.144 27.8623 11.0923 28.1191 11.0681C28.3759 11.0451 28.6327 10.9984 28.9347 11.0203ZM47.1249 18.1103C47.6142 18.1103 47.6258 18.1136 47.7044 18.5416C47.801 19.0696 47.8687 19.6021 47.9329 20.1347C48.0006 20.7021 48.0688 21.2695 48.1313 21.8374C48.1816 22.2946 48.2238 22.7529 48.2713 23.2101C48.321 23.6892 48.3736 24.1666 48.4251 24.6452C48.4534 24.9157 48.4801 25.1861 48.5119 25.4561C48.5211 25.5342 48.4968 25.5758 48.4176 25.5848C48.2504 25.6034 48.0844 25.6248 47.9178 25.6422C47.6124 25.6743 47.3065 25.7057 47.0005 25.7333C46.8426 25.7474 46.8322 25.7389 46.8027 25.5905C46.5343 24.2437 46.2654 22.898 45.9993 21.5506C45.8223 20.6548 45.6499 19.7585 45.4764 18.8627C45.4531 18.7394 45.4315 18.6159 45.4116 18.4921C45.4001 18.4212 45.4197 18.3757 45.5024 18.3566C46.0537 18.2312 46.6107 18.1344 47.1249 18.1103ZM26.5661 18.1103C27.0895 18.1103 27.0872 18.1119 27.1682 18.5736C27.2931 19.2884 27.3816 20.007 27.4609 20.7279C27.5384 21.4275 27.6228 22.1265 27.6986 22.826C27.7501 23.3046 27.7906 23.7842 27.8386 24.2622C27.8727 24.6024 27.9132 24.9415 27.9502 25.2812C27.9548 25.3228 27.9571 25.3644 27.96 25.4066C27.9676 25.573 27.96 25.5865 27.7952 25.6028C27.4684 25.636 27.141 25.6636 26.8142 25.6951C26.6957 25.7063 26.5777 25.7232 26.4602 25.7344C26.3041 25.7485 26.2989 25.7479 26.2682 25.5944C26.1583 25.0551 26.0519 24.5147 25.9443 23.9754C25.6863 22.6764 25.4255 21.3786 25.1692 20.0796C25.0669 19.56 24.979 19.0381 24.8783 18.518C24.8598 18.4229 24.8737 18.3785 24.9749 18.3554C25.5209 18.2317 26.0704 18.135 26.5661 18.1103ZM33.4751 23.5571V25.7372C33.4751 25.758 33.4728 25.7794 33.4757 25.8002C33.4867 25.9059 33.4468 25.9526 33.3346 25.9481C33.1871 25.9419 33.0407 25.9459 32.8932 25.9492C32.5855 25.9549 32.2772 25.9431 31.9701 25.9774C31.8001 25.9965 31.8035 25.9863 31.7868 25.812C31.7364 25.2632 31.6815 24.7149 31.63 24.1661C31.5826 23.6594 31.5398 23.1516 31.4912 22.6449C31.442 22.1237 31.3871 21.6041 31.3373 21.0833C31.3032 20.7358 31.2731 20.3889 31.2431 20.0413C31.2037 19.5892 31.1673 19.1377 31.1262 18.6855C31.1089 18.4949 31.1233 18.4679 31.3177 18.4482C31.8191 18.3946 32.324 18.3793 32.8279 18.4027C32.9534 18.4094 33.0783 18.433 33.1998 18.4617C33.3531 18.4971 33.3698 18.5191 33.3779 18.6748C33.3947 18.9886 33.4115 19.3024 33.4202 19.6168C33.43 19.966 33.4219 20.3157 33.4352 20.665C33.4688 21.6282 33.4635 22.5926 33.4751 23.5571ZM53.9928 23.656V25.7204C53.9928 25.7552 53.9917 25.7901 53.9934 25.8255C54.0009 25.9161 53.9575 25.9481 53.869 25.9475C53.6516 25.9459 53.4347 25.9475 53.2178 25.9504C52.9725 25.9526 52.7279 25.9515 52.4832 25.9774C52.3218 25.9953 52.3207 25.9835 52.3062 25.8278C52.2397 25.113 52.1697 24.3983 52.1026 23.6825C52.0413 23.0228 51.9846 22.3627 51.9221 21.7025C51.8579 21.0215 51.7879 20.3422 51.7249 19.6617C51.6937 19.321 51.6676 18.9802 51.6416 18.6394C51.6312 18.491 51.648 18.4645 51.8203 18.451C52.1199 18.428 52.4184 18.3886 52.7203 18.3937C53.0211 18.3993 53.3225 18.383 53.6215 18.4387C53.8748 18.4859 53.8876 18.5 53.9026 18.7631C53.946 19.5375 53.9327 20.3141 53.961 21.0884C53.9899 21.9128 53.9697 22.7372 53.9928 23.656ZM46.6141 14.364C46.7911 14.3741 46.9305 14.3657 47.0693 14.3955C47.1578 14.4151 47.2024 14.4539 47.211 14.5462C47.2527 14.9899 47.2978 15.4341 47.3435 15.8783C47.3799 16.2388 47.4187 16.5993 47.4563 16.9597L47.4598 16.9805C47.4898 17.2077 47.4829 17.2139 47.2556 17.2263C47.0531 17.237 46.8513 17.2544 46.6488 17.2662C46.5158 17.2741 46.4736 17.296 46.4516 17.1076C46.3758 16.4429 46.2879 15.7799 46.204 15.1158C46.1808 14.9292 46.155 14.7428 46.1265 14.5569C46.1098 14.4517 46.152 14.3938 46.2532 14.3853C46.3862 14.3735 46.5193 14.3702 46.6141 14.364ZM26.1219 14.3668C26.2584 14.3741 26.3989 14.364 26.5366 14.3949C26.6153 14.4123 26.6552 14.4444 26.6627 14.5316C26.6795 14.7396 26.7124 14.9471 26.7327 15.1552C26.7969 15.7934 26.8576 16.4323 26.9178 17.0711C26.9305 17.21 26.9276 17.2128 26.794 17.2223C26.5568 17.2392 26.3191 17.2561 26.0814 17.2656C25.9431 17.2718 25.9258 17.2555 25.9084 17.1183C25.8483 16.6482 25.7916 16.1775 25.7338 15.7068C25.6869 15.3188 25.6476 14.9308 25.5909 14.5439C25.5753 14.4371 25.6111 14.4078 25.6991 14.3904C25.8385 14.3629 25.9784 14.3718 26.1219 14.3668ZM33.3386 16.1247C33.3386 16.529 33.3398 16.9327 33.338 17.3376C33.338 17.5192 33.3357 17.5204 33.1501 17.5181C32.9267 17.5193 32.7035 17.508 32.4814 17.4844C32.338 17.4669 32.3351 17.4714 32.331 17.3236C32.3166 16.8293 32.3015 16.335 32.2911 15.8407C32.2836 15.5061 32.2796 15.1726 32.2587 14.838C32.2477 14.6654 32.2576 14.6637 32.4282 14.6615C32.6798 14.6586 32.9308 14.6699 33.1807 14.707C33.3311 14.7295 33.338 14.7295 33.3386 14.8914C33.3398 15.3025 33.3398 15.7136 33.3398 16.1252H33.3386V16.1247ZM53.8667 16.1353C53.8667 16.5402 53.8679 16.9445 53.8661 17.3489C53.8661 17.5187 53.8633 17.5198 53.688 17.5187C53.4579 17.5166 53.2279 17.5061 52.9985 17.4872C52.8846 17.4788 52.8511 17.4321 52.8586 17.3314C52.8597 17.3174 52.8586 17.3033 52.8586 17.2893C52.8412 16.5087 52.8239 15.7288 52.8077 14.9482C52.8071 14.9066 52.8048 14.865 52.8065 14.8228C52.8088 14.6654 52.8094 14.6615 52.9719 14.6626C53.1958 14.6637 53.4179 14.6749 53.6412 14.6963C53.9136 14.7227 53.8656 14.7554 53.8667 14.9646C53.8679 15.3543 53.8673 15.7451 53.8667 16.1353ZM25.5602 17.0846C25.5655 17.3067 25.5655 17.3061 25.3468 17.3579C25.1982 17.3933 25.0495 17.4321 24.8997 17.4641C24.7719 17.4923 24.7493 17.4765 24.7273 17.3545C24.5746 16.5267 24.4225 15.6984 24.271 14.8701C24.2403 14.6986 24.2484 14.6879 24.4219 14.6581C24.6354 14.6215 24.8482 14.5855 25.0617 14.5535C25.1976 14.5327 25.2149 14.54 25.2421 14.6856C25.2959 14.9797 25.3468 15.275 25.3867 15.5713C25.4486 16.0403 25.4995 16.511 25.555 16.9805C25.5597 17.0148 25.5585 17.0503 25.5602 17.0846ZM44.8003 14.6817C45.0796 14.6373 45.3613 14.5923 45.643 14.549C45.7442 14.5338 45.7749 14.5957 45.7882 14.6834C45.8362 15.0073 45.8963 15.3289 45.9357 15.6534C45.9935 16.1235 46.0727 16.5914 46.0878 17.0654C46.0889 17.1138 46.0884 17.1633 46.0895 17.2116C46.0924 17.287 46.0537 17.3258 45.9819 17.3421C45.7911 17.3837 45.6002 17.4253 45.4099 17.4698C45.3185 17.4911 45.2878 17.4535 45.2728 17.3669C45.2155 17.0373 45.1496 16.7095 45.0912 16.3811C44.9923 15.8401 44.8963 15.2986 44.8003 14.757C44.7979 14.7374 44.8003 14.7166 44.8003 14.6817ZM31.9516 16.5807C31.9435 16.8686 31.9614 17.1194 31.9209 17.3702C31.9088 17.4495 31.8851 17.5007 31.7972 17.508C31.6086 17.5232 31.4206 17.5378 31.2332 17.5564C31.1424 17.5659 31.117 17.5277 31.1019 17.4411C31.0597 17.1852 31.0672 16.926 31.0418 16.669C30.9938 16.1837 30.9735 15.695 30.9411 15.208C30.933 15.0894 30.9209 14.9719 30.9111 14.8532C30.9058 14.7869 30.933 14.7497 31.0059 14.7469C31.25 14.7374 31.4929 14.6941 31.7382 14.7025C31.8816 14.7076 31.8938 14.7166 31.9042 14.8571C31.9105 14.9544 31.9088 15.0528 31.9111 15.1507L31.9516 16.5807ZM52.471 16.3018C52.471 16.6369 52.4751 16.9721 52.4705 17.3072C52.4676 17.4816 52.4473 17.4968 52.2779 17.5119C52.1101 17.5271 51.9435 17.5395 51.7764 17.5569C51.6821 17.5665 51.6381 17.5395 51.6324 17.4343C51.6081 16.989 51.5751 16.5436 51.5433 16.0988C51.5184 15.7299 51.4901 15.3616 51.4635 14.9932C51.4606 14.9511 51.4629 14.9089 51.46 14.8673C51.4559 14.7936 51.4791 14.7503 51.5641 14.7475C51.8013 14.7396 52.0367 14.6952 52.2755 14.7036C52.4213 14.7087 52.4236 14.7109 52.4346 14.8583C52.4699 15.3385 52.4734 15.8199 52.471 16.3018ZM24.8598 22.2924C25.1594 22.6129 25.1745 22.9925 25.0755 23.3895C24.9761 23.7865 24.7493 24.1138 24.4746 24.4073C24.0136 24.8977 23.4566 25.2598 22.8643 25.5674C21.8446 26.0971 20.7635 26.4492 19.6357 26.6572C18.8242 26.8062 18.0075 26.921 17.1821 26.9648C16.9305 26.9783 16.6794 26.9896 16.4278 26.9879C16.2456 26.9879 16.0629 26.9929 15.8812 26.9867C15.7268 26.9811 15.7043 26.9553 15.6915 26.7984C15.6447 26.2355 15.6048 25.672 15.5533 25.1091C15.4931 24.4568 15.4226 23.805 15.3578 23.1527C15.3104 22.6809 15.2693 22.208 15.2172 21.7373C15.1571 21.1829 15.0894 20.6295 15.0235 20.0751C14.9633 19.5633 14.9055 19.0505 14.8419 18.5382C14.7707 17.9708 14.6973 17.4045 14.6192 16.8383C14.5427 16.2929 14.4631 15.748 14.3803 15.2035C14.2456 14.3074 14.0991 13.4131 13.9407 12.5206C13.8125 11.793 13.6698 11.0678 13.5127 10.3455C13.4919 10.2488 13.5219 10.21 13.6093 10.1746C14.4462 9.83717 15.2803 9.49358 16.1167 9.15449C16.2722 9.09151 16.4319 9.03865 16.5973 9.00884C16.7118 8.98804 16.7413 9.01109 16.7379 9.123C16.7292 9.40923 16.7413 9.69658 16.7124 9.98169C16.7054 10.0582 16.7015 10.1349 16.7008 10.2117C16.6875 11.2379 16.6748 12.2648 16.7026 13.2916C16.7269 14.1913 16.7755 15.0905 16.8292 15.9897C16.8715 16.6994 16.9322 17.409 16.9947 18.1176C17.056 18.8121 17.1306 19.5054 17.2006 20.1999C17.2139 20.3321 17.226 20.3444 17.3805 20.3242C17.6848 20.2797 17.9918 20.2551 18.2995 20.2505C19.2556 20.2483 20.1961 20.3759 21.1262 20.5902C21.94 20.778 22.7319 21.0282 23.4907 21.378C23.8667 21.5512 24.2264 21.7514 24.5544 22.0056C24.666 22.091 24.7655 22.1895 24.8598 22.2924ZM45.2335 22.1237C45.6037 22.4391 45.7384 22.8255 45.6332 23.3034C45.5458 23.6976 45.348 24.0289 45.0842 24.3252C44.6609 24.8015 44.1467 25.1637 43.5902 25.4662C42.4994 26.06 41.3374 26.4458 40.1158 26.6685C39.449 26.7915 38.7765 26.8827 38.1006 26.9418C37.7177 26.9738 37.3331 27.0137 36.9033 26.9879H36.4013C36.3035 26.9879 36.248 26.9581 36.2399 26.845C36.2029 26.3513 36.1601 25.8581 36.1144 25.365C36.0658 24.8442 36.012 24.3235 35.9611 23.8028C35.9148 23.3242 35.872 22.8446 35.8217 22.366C35.7754 21.915 35.7222 21.4652 35.6719 21.0147C35.625 20.5919 35.5799 20.169 35.5284 19.7467C35.4666 19.2349 35.4012 18.7232 35.3358 18.2115C35.2745 17.7341 35.2138 17.2572 35.1484 16.7803C35.0789 16.2692 35.0057 15.7586 34.9286 15.2485C34.8257 14.5867 34.7152 13.927 34.6065 13.2663C34.4548 12.3306 34.2793 11.3987 34.0801 10.4715C34.072 10.4304 34.068 10.3883 34.0553 10.3483C34.0252 10.2584 34.0541 10.2106 34.1449 10.1757C35.0339 9.83773 35.8946 9.43003 36.7917 9.10838C36.9091 9.06564 37.0277 9.01784 37.1543 9.00547C37.2683 8.99422 37.2972 9.01222 37.2862 9.13031C37.2261 9.77081 37.2608 10.4147 37.2295 11.0557C37.2041 11.5787 37.207 12.1034 37.2342 12.6269C37.2405 12.7596 37.2457 12.8929 37.2446 13.0251C37.2376 13.6537 37.2718 14.2819 37.3047 14.9094C37.347 15.7389 37.4088 16.5666 37.4719 17.395C37.5176 17.9927 37.5772 18.5894 37.635 19.1866C37.6656 19.5133 37.6986 19.8394 37.7403 20.1645C37.7628 20.3439 37.7721 20.3456 37.9531 20.3219C38.2724 20.2798 38.5923 20.2455 38.915 20.25C40.0475 20.264 41.1575 20.4378 42.2466 20.7397C42.9841 20.9433 43.7019 21.1975 44.3798 21.5534C44.6856 21.7116 44.972 21.9028 45.2335 22.1237ZM19.081 25.2216C19.4997 25.027 21.5328 23.4823 21.6942 23.2303C20.7074 22.817 19.7172 22.4329 18.6524 22.1186L19.081 25.2216ZM42.1731 23.3316C42.2252 23.277 42.2194 23.2348 42.1489 23.2045C42.0083 23.1421 41.8689 23.0757 41.7266 23.0189C40.9672 22.7169 40.2043 22.4245 39.4217 22.1861C39.3534 22.1658 39.2834 22.1197 39.1961 22.1591L39.6178 25.2081C39.6802 25.2216 39.7045 25.1935 39.7323 25.1743C40.4431 24.6671 41.1586 24.1661 41.8411 23.6206C41.9562 23.5295 42.0702 23.4378 42.1731 23.3316Z" fill="#00A1D6"/>
</svg>
