<svg width="90" height="36" viewBox="0 0 90 36" fill="none" xmlns="http://www.w3.org/2000/svg">
<path d="M5.76942 18.8714C5.75 18.6772 5.75 18.4636 5.75 18.25C5.75 12.7354 10.2354 8.25 15.75 8.25C21.2645 8.25 25.75 12.7354 25.75 18.25C25.75 23.7645 21.2645 28.25 15.75 28.25C15.7306 28.25 15.3617 28.25 15.3422 28.25C14.1383 28.2111 13.148 27.3568 12.915 26.2112C12.4685 23.6092 10.3907 21.551 7.76941 21.1238C6.66262 20.8713 5.82767 19.9199 5.76942 18.7548C5.76942 18.716 5.76942 18.6772 5.76942 18.6189" fill="url(#paint0_linear_601_17)"/>
<path d="M15.0511 22.0368C16.8375 21.6096 18.4103 20.6775 19.653 19.396C20.255 18.7746 20.255 17.7261 19.653 17.1048C18.4103 15.8426 16.8181 14.9106 15.0511 14.4639C14.1773 14.2504 13.3035 14.7552 13.0511 15.6096C12.818 16.4445 12.6821 17.3378 12.6821 18.2504C12.6821 19.163 12.818 20.0562 13.0511 20.9106C13.3035 21.7455 14.1967 22.2504 15.0511 22.0368Z" fill="white"/>
<path d="M43.2453 12.2305H31.8473C31.7502 12.2305 31.6531 12.3081 31.6531 12.4052L31.5754 13.2013C31.556 13.2984 31.6337 13.3761 31.7502 13.3761H35.6531C35.6143 13.6285 35.4201 14.8324 35.3813 15.1237H32.0609C31.9056 15.1237 31.7696 15.2401 31.7502 15.3955L30.7987 24.0169C30.7793 24.1916 30.9153 24.3275 31.1094 24.3275H41.4783C41.6725 24.3275 41.8278 24.1916 41.8473 24.0169L42.7599 15.3955C42.7794 15.2401 42.6628 15.1042 42.4881 15.1042H39.1482L39.3424 13.3567H43.1289C43.2259 13.3567 43.3036 13.279 43.3036 13.2013L43.4007 12.3664C43.4007 12.3081 43.3425 12.2305 43.2453 12.2305ZM36.7794 13.3761H38.1968L38.0026 15.1237H36.5075C36.5463 14.8324 36.7405 13.6285 36.7794 13.3761ZM41.3424 16.2693C41.4395 16.2693 41.4978 16.3469 41.4978 16.4246L40.7988 23.046C40.7988 23.1236 40.7211 23.1819 40.624 23.1819H32.1968C32.1192 23.1819 32.0415 23.1236 32.0609 23.046L32.7599 16.4246C32.7599 16.3469 32.857 16.2693 32.9346 16.2693H35.1288C34.9541 17.0654 34.6434 18.211 34.4104 18.9877C34.1774 19.6867 33.9444 20.3081 33.6919 20.8518C33.6531 20.9295 33.7113 21.0071 33.789 21.0071H34.7016C34.8182 21.0071 34.9347 20.9295 34.9735 20.8324C35.0706 20.6188 35.1483 20.3858 35.2453 20.1334C35.3619 19.8033 35.4783 19.4344 35.5949 19.0654C35.7114 18.6964 35.8473 18.0557 35.9444 17.6479C36.0414 17.2402 36.158 16.6965 36.255 16.2693H37.8861L37.4201 20.7353C37.4007 20.8906 37.5172 21.0071 37.692 21.0071H40.0997C40.1774 21.0071 40.2357 20.9489 40.2551 20.8712L40.3521 19.978C40.3521 19.9003 40.3133 19.8421 40.2357 19.8421H38.6823L39.0706 16.2304L41.3424 16.2693Z" fill="black"/>
<path d="M72.1965 17.0853H73.8858L73.5168 20.6582C73.4974 20.7746 73.5945 20.8718 73.711 20.8718H74.3907C74.5266 20.8718 74.6431 20.7746 74.6625 20.6387L75.0314 17.0853H77.0317C77.0895 17.0853 77.148 17.0465 77.148 16.9883L77.2447 16.095C77.2447 16.0368 77.2065 15.998 77.148 15.998H75.2838L75.4392 14.4446H76.8757C76.9342 14.4446 76.9927 14.4057 76.9927 14.3474L77.0895 13.4543C77.0895 13.396 77.0512 13.3571 76.9927 13.3571H75.5557L75.6722 12.3281C75.6916 12.2309 75.614 12.1533 75.4974 12.1533H74.7402C74.643 12.1533 74.546 12.2309 74.5266 12.3281L74.1382 16.0174H73.1673C73.1091 16.0174 73.0703 15.9785 73.0897 15.9203L73.4198 12.7553C73.4392 12.6581 73.3615 12.5804 73.245 12.5804H72.5265C72.4295 12.5804 72.3324 12.6581 72.313 12.7553L71.8858 16.5611L71.8664 16.7552C71.847 16.93 72.0023 17.0853 72.1965 17.0853Z" fill="black"/>
<path d="M71.5558 20.9286H72.4102C72.4879 20.9286 72.5461 20.8704 72.5655 20.8121C72.6432 20.3267 72.8762 18.8316 72.9345 18.249C72.9345 18.1519 72.8568 18.0742 72.7597 18.0742H71.9442C71.8665 18.0742 71.8082 18.1325 71.7888 18.2102C71.6335 19.5888 71.4976 20.1908 71.4004 20.7539C71.3811 20.8315 71.4587 20.9286 71.5558 20.9286Z" fill="black"/>
<path d="M81.8283 22.4431C81.5366 21.8994 81.3813 21.5304 81.2456 21.1227C81.2066 21.0256 81.1293 20.9673 81.0318 20.9673H80.4303C80.5856 20.5595 80.7018 20.113 80.7603 19.6664L81.0513 16.7343C81.0708 16.6373 80.9928 16.5596 80.8961 16.5596H80.1191C80.0223 16.5596 79.9248 16.6373 79.9248 16.7343L79.6143 19.6664C79.5371 20.1518 79.4591 20.5402 79.2843 20.9479C79.1096 21.3557 78.8381 21.744 78.5658 22.1129C78.2943 22.5013 77.9058 22.9285 77.5173 23.3168C77.2068 23.6081 76.9541 23.8605 76.6046 24.1518C76.5078 24.2295 76.5656 24.3848 76.6826 24.3848H77.7116C77.9058 24.3848 78.0806 24.3071 78.2163 24.1712C78.5463 23.8605 78.9153 23.511 79.2063 23.1615C79.5558 22.7343 79.9638 22.1129 80.1971 21.6275C80.3718 22.0159 80.6238 22.5401 80.8181 22.9285C81.2261 23.7052 81.4398 24.0159 81.5561 24.2101C81.6341 24.3266 81.7893 24.4043 81.9446 24.4043H82.8183C82.9151 24.4043 82.9931 24.2683 82.9346 24.1907C82.6436 23.8217 82.1973 23.1421 81.8283 22.4431Z" fill="black"/>
<path d="M83.4976 12.2305H78.2551C78.1576 12.2305 78.0608 12.3081 78.0413 12.4052L77.9633 13.1819C77.9446 13.279 78.0218 13.3567 78.1381 13.3567H80.1578L79.7693 14.5606H78.2941C78.1381 14.5606 77.9828 14.677 77.9633 14.8324L77.3423 20.677C77.3228 20.7742 77.4008 20.8518 77.5171 20.8518H78.2746C78.3713 20.8518 78.4688 20.7742 78.4876 20.677L79.0126 15.6479C79.0126 15.6285 79.0313 15.5896 79.0703 15.5896H82.0411C82.0606 15.5896 82.0996 15.6091 82.0801 15.6479L81.5558 20.677C81.5363 20.7742 81.6143 20.8518 81.7306 20.8518H82.4881C82.5848 20.8518 82.6823 20.7547 82.7018 20.6576L83.3228 14.8129C83.3423 14.6576 83.2261 14.5411 83.0513 14.5411H80.8763L81.2453 13.3372H83.3423C83.4391 13.3372 83.5366 13.2595 83.5561 13.1625L83.6333 12.3858C83.6723 12.3275 83.5951 12.2305 83.4976 12.2305Z" fill="black"/>
<path d="M76.8765 18.0947C76.6627 18.0947 76.2937 18.0947 76.0995 18.0947C76.0027 18.0947 75.9247 18.1724 75.9052 18.2695C75.8475 18.6191 75.75 19.5511 75.4394 20.2112C74.8374 21.4928 73.9443 22.4637 71.5365 23.0657C71.4394 23.085 71.3617 23.1239 71.3034 23.1433C71.2064 23.1627 71.1093 23.2598 71.1093 23.3569L71.0122 24.1919C71.0122 24.2695 71.0511 24.3472 71.1093 24.3666C71.1481 24.386 71.187 24.386 71.2064 24.3666C75.8857 23.1239 76.6627 21.1627 77.0122 18.2695C77.0317 18.1919 76.9732 18.0947 76.8765 18.0947Z" fill="black"/>
<path d="M62.177 20.3075C62.0799 19.7444 61.8275 17.958 61.7692 17.4531C61.7692 17.3754 61.6916 17.3172 61.6139 17.3172H60.7401C60.7984 17.1813 61.8469 15.123 62.0216 14.7153C62.1382 14.4628 62.2547 14.1909 62.3517 13.9386C62.41 13.7832 62.2935 13.6278 62.1382 13.6278H60.8954L60.9343 13.3172L61.0508 12.288C61.0702 12.191 60.9925 12.1133 60.876 12.1133H60.1187C60.0217 12.1133 59.9246 12.191 59.9051 12.288L59.7692 13.6473H58.1187C58.0217 13.6473 57.9245 13.725 57.9051 13.822L57.8469 14.6181C57.8275 14.7153 57.9051 14.7929 58.0216 14.7929H60.7207C60.3323 15.7638 57.8081 19.8609 57.1478 20.8123C57.0896 20.9094 57.1478 21.0259 57.2644 21.0259H58.2353C58.3517 21.0259 58.4683 20.9676 58.5265 20.8706C58.6042 20.7735 59.342 19.5114 59.4585 19.2783L58.9148 24.1716C58.8954 24.2686 58.9731 24.3463 59.0896 24.3463H59.9051C60.0023 24.3463 60.0993 24.2686 60.1187 24.1716L60.7013 17.9191C60.7984 18.6958 60.9731 19.958 61.0313 20.3463C61.0508 20.424 61.109 20.4628 61.1866 20.4628H62.0411C62.1188 20.4822 62.1964 20.3851 62.177 20.3075Z" fill="black"/>
<path d="M69.4201 12.25H63.8473C63.6726 12.25 63.5367 12.3859 63.5173 12.5412L62.7017 20.3082C62.6823 20.4053 62.76 20.483 62.8765 20.483H63.6532C63.7503 20.483 63.8473 20.4053 63.8668 20.3082L64.5852 13.4927C64.5852 13.4539 64.624 13.415 64.6823 13.415H68.3911C68.4298 13.415 68.4687 13.4539 68.4687 13.4927L67.7308 20.3082C67.7114 20.4053 67.7891 20.483 67.9056 20.483H68.6629C68.76 20.483 68.857 20.4053 68.8765 20.3082L69.7114 12.5412C69.7114 12.3859 69.5755 12.25 69.4201 12.25Z" fill="black"/>
<path d="M69.0315 23.221H66.8179C66.7791 23.221 66.7597 23.2016 66.7597 23.1627L67.0897 20.0754C67.1092 19.9006 66.9733 19.7453 66.7985 19.7453H66.313C66.4296 19.2987 66.5266 18.7938 66.5849 18.2113L66.9538 14.7938C66.9733 14.6967 66.8956 14.5996 66.7791 14.5996H65.983C65.8858 14.5996 65.7888 14.6773 65.7888 14.7744L65.4199 18.1919C65.3227 19.0268 65.148 19.8423 64.7791 20.5414C64.0412 21.9783 62.8373 23.1239 61.5364 24.153C61.4587 24.2307 61.4781 24.3472 61.5946 24.3472H62.7985C63.0121 24.3472 63.2645 24.2695 63.4393 24.1142C63.614 23.9589 64.4684 23.1239 64.8373 22.6191C65.2839 22.0171 65.5946 21.4929 65.8471 20.9685L65.5363 23.92C65.5169 24.153 65.6917 24.3666 65.9247 24.3666H68.915C69.0121 24.3666 69.1092 24.2889 69.1286 24.1725L69.2062 23.3958C69.2062 23.2986 69.1286 23.221 69.0315 23.221Z" fill="black"/>
<path d="M56.2352 12.1719L46.8566 12.5603C46.643 12.5796 46.4488 12.735 46.4294 12.9486L46.2547 14.6379C46.177 15.3175 46.0605 16.2302 45.9052 17.0456C45.7498 17.8612 45.575 18.6962 45.3614 19.5505C45.1478 20.4049 44.8954 21.1233 44.6041 21.9777C44.3711 22.6573 44.0993 23.3369 43.808 23.9583C43.711 24.1719 43.8663 24.3854 44.1187 24.3854H44.5847C44.7401 24.3854 44.9343 24.2884 44.9925 24.1525C45.3032 23.434 45.5944 22.6379 45.8469 21.8612C46.1187 21.0068 46.3517 20.269 46.5459 19.434C46.7401 18.599 46.876 17.7836 46.9925 16.9874C47.1284 16.1913 47.245 15.3175 47.3032 14.6573L47.4197 13.7059L49.4197 13.6282C48.9537 17.7059 47.5556 23.6282 47.5362 23.6864L47.4779 23.8612C47.3809 24.1136 47.575 24.3854 47.8468 24.3854H52.4876C52.6624 24.3854 52.7789 24.2495 52.7789 24.0748L52.4488 19.3757C52.4488 19.2787 52.3517 19.1816 52.2547 19.1816H51.478C51.3614 19.1816 51.2838 19.2787 51.2838 19.3952L51.5362 23.1428C51.5362 23.1816 51.4974 23.2398 51.4585 23.2398H48.8954C48.8566 23.2398 48.8371 23.201 48.8371 23.1622C49.3032 21.3175 50.1964 16.9874 50.5653 13.5699L51.0896 13.5505L53.9828 13.434C53.9634 13.6282 53.944 13.8224 53.944 14.036C53.6915 17.434 53.7886 20.8127 54.41 24.1525C54.4294 24.2884 54.5848 24.4049 54.7401 24.4049H55.3615C55.6138 24.4049 55.6915 24.1719 55.6333 23.9583C55.2255 22.1136 55.0313 20.2496 54.9731 18.3854C54.9537 17.5505 54.9537 16.6961 54.9731 15.8612C54.9925 15.434 55.0119 15.0263 55.0313 14.5991C55.0507 14.3855 55.0507 14.1719 55.0702 13.9777C55.0702 13.8806 55.0507 13.4534 55.109 13.3952L56.0993 13.337C56.1769 13.337 56.2546 13.2593 56.2546 13.1816L56.3323 12.3467C56.3905 12.2301 56.3129 12.1525 56.2352 12.1719Z" fill="black"/>
<defs>
<linearGradient id="paint0_linear_601_17" x1="15.7508" y1="8.25" x2="15.7508" y2="28.2517" gradientUnits="userSpaceOnUse">
<stop stop-color="#FA5050"/>
<stop offset="0.9949" stop-color="#FB0414"/>
</linearGradient>
</defs>
</svg>
