<svg width="32" height="32" viewBox="0 0 24 24" fill="none" xmlns="http://www.w3.org/2000/svg">
<path fill-rule="evenodd" clip-rule="evenodd" d="M17.9101 6.73689C16.931 4.72361 14.4542 3.0004 11.65 3C10.1786 2.99961 7.9307 3.50475 6.25089 5.53599C5.12912 6.89238 4.75144 8.47984 4.98783 10.063C5.15023 11.1506 5.75601 12.5855 6.62285 13.4932C6.94961 11.1922 8.16157 9.3826 9.75061 8.05244C12.6197 5.86059 15.6827 5.9847 17.9101 6.73689ZM20.1486 10.1888C18.3932 7.91076 15.3587 7.27341 12.6195 8.28922L12.642 8.296C12.7229 8.32034 12.8036 8.34464 12.8841 8.3719C16.9397 9.75355 19.1316 14.1533 17.7799 18.1988C17.4202 19.275 16.8444 20.2162 16.119 20.9942C16.9928 20.7523 17.887 20.4064 18.6542 19.8152C21.7429 17.4353 22.3509 13.0469 20.1486 10.1888ZM9.85483 17.2672C10.429 17.3955 11.0259 17.4663 11.6422 17.4663C13.5183 17.4663 15.0044 17.0299 16.4079 15.9973C16.3716 16.5814 16.196 17.2844 16.0354 17.6984C14.7143 21.1071 10.8898 22.5847 6.88177 21.2684C3.39666 20.1237 1.26104 16.0371 2.2368 12.626C2.49845 11.7118 2.76582 11.0847 3.26781 10.2956C3.56892 12.4946 4.93794 14.6334 6.93386 15.9945C7.0856 16.0967 7.18939 16.2674 7.19788 16.4649C7.20064 16.5306 7.1892 16.5922 7.1746 16.6561C7.1254 16.8795 7.06451 17.1558 7.00817 17.4114C6.92125 17.8058 6.84517 18.151 6.83954 18.1769C6.83563 18.195 6.83102 18.2133 6.82637 18.2318C6.81272 18.2861 6.79871 18.3418 6.80106 18.3971C6.80817 18.5613 6.94629 18.6894 7.10987 18.6822C7.1742 18.6795 7.2255 18.653 7.27858 18.6193L9.17249 17.4052C9.31495 17.3138 9.46748 17.255 9.63758 17.2477C9.71256 17.2444 9.78478 17.2528 9.85483 17.2672Z" fill="black"/>
</svg>
