<svg width="24" height="24" viewBox="0 0 24 24" fill="none" xmlns="http://www.w3.org/2000/svg">
<path d="M22.5415 6.49818C22.2895 5.51636 21.5441 4.74182 20.5956 4.47636C18.8807 4 12 4 12 4C12 4 5.12281 4 3.40439 4.47636C2.45943 4.73818 1.71397 5.51273 1.45848 6.49818C1 8.28 1 12 1 12C1 12 1 15.72 1.45848 17.5018C1.71047 18.4836 2.45593 19.2582 3.40439 19.5236C5.12281 20 12 20 12 20C12 20 18.8807 20 20.5956 19.5236C21.5406 19.2618 22.286 18.4873 22.5415 17.5018C23 15.72 23 12 23 12C23 12 23 8.28 22.5415 6.49818Z" fill="black"/>
<path d="M9.8021 15.4291L15.5173 12L9.8021 8.57091V15.4291Z" fill="white"/>
</svg>
